<?xml version="1.0" encoding="UTF-8"?>
<svg version="1.1" xmlns="http://www.w3.org/2000/svg" width="499" height="499">
<path d="M0 0 C3.71579946 1.48182335 3.71579946 1.48182335 4.96109009 3.75233459 C5.17711884 4.45547287 5.39314758 5.15861115 5.61572266 5.88305664 C5.86923492 6.68050797 6.12274719 7.47795929 6.38394165 8.29957581 C6.64138153 9.16106735 6.89882141 10.0225589 7.1640625 10.91015625 C7.44220795 11.79279648 7.72035339 12.67543671 8.00692749 13.58482361 C8.89409533 16.40643526 9.76075856 19.23378977 10.625 22.0625 C11.49898706 24.89384391 12.37729938 27.72365466 13.26449585 30.55088806 C13.81597975 32.3111268 14.35934463 34.07393296 14.89395142 35.83937073 C15.53887233 37.91155387 16.26220116 39.95903973 17 42 C17.66 42.33 18.32 42.66 19 43 C20.65 39.7 22.3 36.4 24 33 C24.99 33 25.98 33 27 33 C25.99799429 39.29984444 25.00573642 45.52645816 23.26953125 51.671875 C22.36344343 59.49837273 25.41053391 66.8036222 27.9375 74.0625 C28.65627244 76.15709803 29.37375459 78.25213935 30.08984375 80.34765625 C30.43539307 81.32782715 30.78094238 82.30799805 31.13696289 83.31787109 C31.8622414 85.57187665 32.29409483 87.65697 32.6796875 89.98046875 C34.46109779 94.05452246 36.56572296 94.71755704 40.58789062 96.3125 C41.87469727 96.7765625 41.87469727 96.7765625 43.1875 97.25 C44.02603516 97.57484375 44.86457031 97.8996875 45.72851562 98.234375 C47.37302984 98.87112679 49.02125684 99.49838627 50.67333984 100.11523438 C53.82704923 101.31450435 56.91024269 102.64535674 60 104 C63.08747687 100.91252313 62.12745195 92.08763501 62.2578125 87.92578125 C62.20991283 83.77009853 61.76393169 81.29532114 58.875 78.125 C57.61173164 77.04907004 56.3207058 76.00459366 55 75 C50 69.67901235 50 69.67901235 50 66 C54.6883436 67.6981402 58.91856856 70.06162223 63.25 72.5 C64.34828125 73.10521484 64.34828125 73.10521484 65.46875 73.72265625 C66.16484375 74.11324219 66.8609375 74.50382812 67.578125 74.90625 C68.21137695 75.26009766 68.84462891 75.61394531 69.49707031 75.97851562 C71 77 71 77 72 79 C72.14004452 80.48725113 72.22556097 81.97986453 72.28125 83.47265625 C72.33732422 84.82327148 72.33732422 84.82327148 72.39453125 86.20117188 C72.44673828 87.6175293 72.44673828 87.6175293 72.5 89.0625 C72.75401325 95.75621966 73.18314687 102.34945411 74 109 C83.16586333 113.08328874 92.46753181 116.78542203 101.8125 120.4375 C109.95627358 123.62128423 118.09759748 126.80622546 126.1875 130.125 C126.88141846 130.40786865 127.57533691 130.6907373 128.2902832 130.98217773 C132.87676101 132.87676101 132.87676101 132.87676101 134 134 C133.95976136 135.91907339 133.83798165 137.83641251 133.6875 139.75 C133.59855469 141.008125 133.50960937 142.26625 133.41796875 143.5625 C133.14568725 146.81495847 132.7190773 150.02204891 132.23828125 153.25 C130.2266241 164.4173498 130.2266241 164.4173498 133.9375 174.625 C135.27514641 176.09850112 136.62959162 177.55691845 138 179 C139.18457756 180.76628975 140.32975872 182.55953512 141.4375 184.375 C142.00984375 185.27734375 142.5821875 186.1796875 143.171875 187.109375 C144.48031921 189.17828251 145.78159639 191.25172955 147.078125 193.328125 C147.77421875 194.41609375 148.4703125 195.5040625 149.1875 196.625 C149.82042969 197.62789062 150.45335937 198.63078125 151.10546875 199.6640625 C153.18701714 202.23059021 153.89964737 202.41669764 157 203 C162.10210404 195.80065116 167.0379846 188.50479425 171.875 181.125 C172.55046875 180.10664063 173.2259375 179.08828125 173.921875 178.0390625 C174.56382812 177.059375 175.20578125 176.0796875 175.8671875 175.0703125 C176.44581543 174.19133301 177.02444336 173.31235352 177.62060547 172.40673828 C180.118126 168.0491175 180.07060635 165.08355248 179.44140625 160.1328125 C179.23354492 158.43318359 179.23354492 158.43318359 179.02148438 156.69921875 C178.87001953 155.51972656 178.71855469 154.34023438 178.5625 153.125 C178.26896533 150.79466796 177.9784983 148.46394703 177.69140625 146.1328125 C177.49333374 144.58424561 177.49333374 144.58424561 177.29125977 143.00439453 C177.19514404 142.01294434 177.09902832 141.02149414 177 140 C176.88261475 138.94538574 176.76522949 137.89077148 176.64428711 136.80419922 C177 134 177 134 179.06225586 132.3034668 C182.35416691 130.84285738 185.64680883 129.45017917 189.00390625 128.14453125 C189.67602142 127.88151215 190.3481366 127.61849304 191.0406189 127.34750366 C193.21297808 126.49833059 195.38767683 125.65534001 197.5625 124.8125 C199.80160081 123.9396333 202.04014366 123.06534687 204.27864075 122.19093323 C205.76182458 121.611664 207.24521223 121.03291633 208.72880554 120.45469666 C215.6394231 117.75895014 222.52205407 114.99495903 229.38696289 112.18481445 C234.78350842 110 234.78350842 110 237 110 C237.07516846 108.87356079 237.07516846 108.87356079 237.15185547 107.72436523 C237.38512837 104.29483042 237.62996128 100.86621341 237.875 97.4375 C237.95363281 96.25607422 238.03226563 95.07464844 238.11328125 93.85742188 C238.35319457 90.56322749 238.64894654 87.28409175 239 84 C239.07331543 83.27627197 239.14663086 82.55254395 239.22216797 81.80688477 C239.93603385 77.90316554 241.71676109 76.15986149 244.7734375 73.91015625 C246.29409872 72.93994271 247.82858713 71.99111836 249.375 71.0625 C250.14328125 70.56943359 250.9115625 70.07636719 251.703125 69.56835938 C257.42437803 66 257.42437803 66 262 66 C261.43770301 69.75983661 259.90688582 71.41683574 257.1875 74 C256.15689453 74.99 256.15689453 74.99 255.10546875 76 C253 78 253 78 250.72265625 79.546875 C247.79552897 83.71521045 248.85750099 88.34064732 249.25 93.25 C249.31574219 94.28125 249.38148438 95.3125 249.44921875 96.375 C249.61407811 98.91854445 249.79830535 101.45915488 250 104 C251.66675781 103.31164062 251.66675781 103.31164062 253.3671875 102.609375 C254.08358398 102.31474365 254.79998047 102.0201123 255.53808594 101.71655273 C257.10393871 101.06891262 258.66708907 100.41470202 260.22753906 99.75415039 C263.53320802 98.36484621 266.7141259 97.07761447 270.1796875 96.13671875 C274.27179061 95.02351745 276.34615253 94.14082761 278.5 90.3828125 C279.63252126 87.37455291 280.56272107 84.37625777 281.38183594 81.26904297 C282.07633351 78.71980897 282.86525693 76.2098502 283.6640625 73.69140625 C284.2365677 71.83661288 284.80688915 69.98114404 285.375 68.125 C285.65053711 67.24593994 285.92607422 66.36687988 286.20996094 65.46118164 C287.86856875 59.76659221 288.1383098 55.82581116 287 50 C286.74830915 48.57298518 286.49701422 47.14590048 286.24609375 45.71875 C285.97907568 44.31202064 285.70954185 42.90576648 285.4375 41.5 C285.29892578 40.77296875 285.16035156 40.0459375 285.01757812 39.296875 C284.68063335 37.53081963 284.34064317 35.76534574 284 34 C287.7890625 34.7109375 287.7890625 34.7109375 289.6875 37.3125 C290.80664216 39.60407681 291.38910784 41.55643134 292 44 C292.66 44.33 293.32 44.66 294 45 C294.11165497 44.45187149 294.22330994 43.90374298 294.33834839 43.33900452 C295.50325029 37.83855089 297.01004935 32.56572542 298.8203125 27.24609375 C299.08383514 26.45977066 299.34735779 25.67344757 299.61886597 24.86329651 C300.44997597 22.38657143 301.28736455 19.91202477 302.125 17.4375 C302.69442958 15.74428153 303.26344375 14.0509233 303.83203125 12.35742188 C305.21656373 8.23665217 306.60672572 4.11782181 308 0 C308.99 0 309.98 0 311 0 C310.23372332 6.83678026 308.50165466 13.40320261 306.8125 20.0625 C306.50078857 21.3009668 306.18907715 22.53943359 305.86791992 23.81542969 C303.6951826 32.39605974 301.41632776 40.94334238 299.05981445 49.47509766 C297.29764551 55.86288617 295.65865257 62.26968036 294.0703125 68.703125 C292.70640801 74.20678655 291.29380406 79.69777356 289.875 85.1875 C289.62105469 86.18064209 289.36710937 87.17378418 289.10546875 88.19702148 C288.86183594 89.13618408 288.61820312 90.07534668 288.3671875 91.04296875 C288.15175293 91.87852295 287.93631836 92.71407715 287.71435547 93.57495117 C285.64698084 100.59314398 285.64698084 100.59314398 281.83203125 102.9921875 C280.50025587 103.63673587 279.15972439 104.26339989 277.8125 104.875 C277.1014209 105.21305664 276.3903418 105.55111328 275.65771484 105.89941406 C274.17678737 106.60075093 272.69233687 107.29469326 271.20458984 107.98144531 C269.11364997 108.94749195 267.03415442 109.93434604 264.95703125 110.9296875 C258.79538428 113.86680137 252.59887587 116.62568622 246.23046875 119.08984375 C242.7123305 120.52544132 239.37203413 122.25153786 236 124 C238.54713067 126.44524544 239.85680296 126.98698209 243.4375 127.3125 C246.84845471 127.01329345 248.87467933 126.26501075 252 125 C254.98990545 124.53962539 257.98579537 124.249542 261 124 C261 124.99 261 125.98 261 127 C258.59785852 129.33974819 255.77097947 131.12161923 253 133 C252.42636719 133.42152344 251.85273438 133.84304687 251.26171875 134.27734375 C246.29035043 137.61136403 241.7431782 137.73049196 236 137 C233.2959757 136.32399393 230.66856277 135.55761006 228.03125 134.65625 C216.10034448 132.07327045 206.15143912 136.40704335 195.98583984 142.52050781 C193.20627368 144.5913427 192.35899178 146.21526493 191.8125 149.625 C191.82354359 151.75089023 191.89162551 153.87684522 192 156 C191.78909459 158.84722301 191.42342624 161.66851274 191.0625 164.5 C190.99844971 165.18271973 190.93439941 165.86543945 190.8684082 166.56884766 C190.33172359 171.62614062 190.33172359 171.62614062 188.30859375 173.90625 C186.68313217 176.50698853 187.00044452 177.19160782 187.63671875 180.12109375 C188.07232591 181.75253754 188.52766898 183.37880728 189 185 C189.21736816 185.80453613 189.43473633 186.60907227 189.65869141 187.43798828 C190.35291008 189.9868129 191.07828632 192.52492128 191.8125 195.0625 C192.07675781 195.98224609 192.34101563 196.90199219 192.61328125 197.84960938 C194.17592202 203.25499415 195.79907654 208.6366715 197.5 214 C199.50343219 220.35616596 201.43965682 226.72906385 203.3125 233.125 C203.57933594 234.01445312 203.84617187 234.90390625 204.12109375 235.8203125 C206.73066171 244.83018923 206.73066171 244.83018923 206 249 C204.12109375 250.765625 204.12109375 250.765625 201.4375 252.25 C196.70812659 255.00020045 192.14774973 257.86618046 187.625 260.9375 C180.86085953 265.48176549 173.97801551 269.79180959 167 274 C166.09507812 274.56847656 165.19015625 275.13695312 164.2578125 275.72265625 C162 277 162 277 160 277 C160 276.01 160 275.02 160 274 C160.66 274 161.32 274 162 274 C162.66 272.68 163.32 271.36 164 270 C164.66 270 165.32 270 166 270 C166 269.34 166 268.68 166 268 C166.66 268 167.32 268 168 268 C168.3403125 267.1646875 168.3403125 267.1646875 168.6875 266.3125 C170.37550036 263.33840412 172.46676517 261.27991135 175 259 C175.66 259 176.32 259 177 259 C177.20625 258.443125 177.4125 257.88625 177.625 257.3125 C179.16841822 254.71675117 181.06709533 253.15991992 183.40625 251.28515625 C187.98263873 247.69906209 187.98263873 247.69906209 190.74047852 242.75415039 C191.06904316 239.26728519 190.34737121 236.78690746 189.33984375 233.43359375 C189.15466187 232.80587067 188.96947998 232.17814758 188.77868652 231.53140259 C188.17565049 229.49673544 187.55680535 227.46726784 186.9375 225.4375 C186.52055541 224.04188673 186.10462554 222.64596992 185.68969727 221.24975586 C184.66181411 217.79974114 183.62145418 214.35364317 182.57714844 210.90856934 C181.73106421 208.11065754 180.89664666 205.30930294 180.0625 202.5078125 C178.71937001 198.00181547 177.36433219 193.49962108 176 189 C174.26907429 190.8734012 172.54023837 192.74866282 170.8125 194.625 C170.32974609 195.14707031 169.84699219 195.66914063 169.34960938 196.20703125 C166.90893916 198.86064585 164.53775145 201.53916725 162.26171875 204.3359375 C159.71415891 207.33669019 159.0292899 207.84820865 155.21875 208.41015625 C150.8759085 207.85676019 149.1566299 205.6488422 146.5 202.4375 C146.0258667 201.8919043 145.5517334 201.34630859 145.06323242 200.78417969 C143.69324525 199.20200043 142.34566117 197.60286655 141 196 C139.77108964 194.58311099 138.54198516 193.16639027 137.3125 191.75 C136.549375 190.8425 135.78625 189.935 135 189 C134.58041016 190.44052734 134.58041016 190.44052734 134.15234375 191.91015625 C131.33950581 201.53402915 128.45265661 211.13319266 125.49975586 220.71508789 C124.65426025 223.473193 123.82527043 226.2357825 123 229 C122.69868164 229.9787207 122.39736328 230.95744141 122.08691406 231.96582031 C121.80299805 232.92842773 121.51908203 233.89103516 121.2265625 234.8828125 C120.83718506 236.17662842 120.83718506 236.17662842 120.43994141 237.49658203 C119.92866477 240.405922 120.06844364 242.19738586 121 245 C122.55874664 246.98426464 122.55874664 246.98426464 124.59765625 248.69921875 C125.31630859 249.35083984 126.03496094 250.00246094 126.77539062 250.67382812 C127.53013672 251.33833984 128.28488281 252.00285156 129.0625 252.6875 C130.55760969 254.02001493 132.04872818 255.35702629 133.53515625 256.69921875 C134.199104 257.28533936 134.86305176 257.87145996 135.54711914 258.4753418 C137 260 137 260 137 262 C137.55171875 262.22816406 138.1034375 262.45632813 138.671875 262.69140625 C141.67431736 264.37902066 143.8113945 266.50959014 146.25 268.9375 C147.14203125 269.81277344 148.0340625 270.68804687 148.953125 271.58984375 C151 274 151 274 151 277 C149.35 276.67 147.7 276.34 146 276 C146 275.34 146 274.68 146 274 C145.35675781 273.77828125 144.71351563 273.5565625 144.05078125 273.328125 C139.85961004 271.50354342 136.07449687 269.1444671 132.1875 266.75 C131.41857422 266.28464844 130.64964844 265.81929688 129.85742188 265.33984375 C125.31678297 262.55798397 121.03244094 259.58468741 116.8059082 256.34765625 C114.46521899 254.60092049 112.02149166 253.09587014 109.5 251.625 C108.6440625 251.12226563 107.788125 250.61953125 106.90625 250.1015625 C106.2771875 249.73804688 105.648125 249.37453125 105 249 C105.33785447 243.31472477 105.98564656 238.37124131 108.20922852 233.11230469 C109.00098216 230.99737647 109.48438259 228.98200779 109.92578125 226.76953125 C110.88606245 222.2956701 112.23762369 218.06307318 113.75 213.75 C116.11625346 206.81967726 118.28723978 199.85009336 120.3125 192.8125 C120.56676758 191.94012695 120.82103516 191.06775391 121.08300781 190.16894531 C123.09674298 183.18435111 123.09674298 183.18435111 124 176 C123.5268335 175.22519287 123.05366699 174.45038574 122.56616211 173.65209961 C120.84096969 170.73070207 120.44760985 168.71898458 120.0859375 165.3671875 C119.96476562 164.31402344 119.84359375 163.26085937 119.71875 162.17578125 C119.6053125 161.08652344 119.491875 159.99726563 119.375 158.875 C119.13535488 156.70544683 118.89327862 154.53616043 118.6484375 152.3671875 C118.54708496 151.40925293 118.44573242 150.45131836 118.34130859 149.46435547 C118.05881796 146.87130511 118.05881796 146.87130511 117 144 C115.2488473 142.87911098 115.2488473 142.87911098 113.0703125 142.02734375 C112.27496094 141.68509766 111.47960937 141.34285156 110.66015625 140.99023438 C109.82355469 140.64283203 108.98695313 140.29542969 108.125 139.9375 C106.48075346 139.24067701 104.8374825 138.54154644 103.1953125 137.83984375 C102.46328613 137.53425537 101.73125977 137.22866699 100.97705078 136.91381836 C99 136 99 136 96 134 C90.59534052 133.57105877 86.28791487 134.07917199 81.0625 135.5 C74.33162132 137.25514052 68.60908464 138.74113948 62.109375 135.60546875 C57.19192927 132.58794523 52.81123669 129.33692451 49 125 C52.58304203 123.72995459 54.79917039 124.31066294 58.375 125.4375 C63.2886281 126.86382613 67.36959596 127.99528801 72.3125 126.125 C74.1589195 125.09561011 74.1589195 125.09561011 75 123 C73.824375 122.649375 72.64875 122.29875 71.4375 121.9375 C66.60088909 120.32030502 62.04806725 118.24469242 57.44970703 116.04736328 C53.41919969 114.12301211 49.36734535 112.26481888 45.28125 110.4609375 C44.29471436 110.02273682 43.30817871 109.58453613 42.29174805 109.13305664 C40.33535659 108.26588288 38.37595302 107.40546682 36.41333008 106.55249023 C35.50993896 106.14973877 34.60654785 105.7469873 33.67578125 105.33203125 C32.87052002 104.97858643 32.06525879 104.6251416 31.2355957 104.26098633 C27.06521677 101.90868675 25.33194832 99.92388456 23.69360352 95.36401367 C23.30375114 93.90653579 22.92889175 92.44499287 22.56640625 90.98046875 C22.35907364 90.18980515 22.15174103 89.39914154 21.93812561 88.58451843 C21.27920626 86.05947995 20.63937145 83.53005042 20 81 C19.57795004 79.3715727 19.15462411 77.74347553 18.72998047 76.11572266 C17.44821973 71.18575483 16.19126405 66.2496496 14.9375 61.3125 C9.50127449 39.64582432 9.50127449 39.64582432 3.3125 18.1875 C1.4611893 12.09467566 0.30449609 6.39441799 0 0 Z " fill="#B7A892" transform="translate(94,111)"/>
<path d="M0 0 C0.99 0 1.98 0 3 0 C2.23372332 6.83678026 0.50165466 13.40320261 -1.1875 20.0625 C-1.49921143 21.3009668 -1.81092285 22.53943359 -2.13208008 23.81542969 C-4.3048174 32.39605974 -6.58367224 40.94334238 -8.94018555 49.47509766 C-10.70235449 55.86288617 -12.34134743 62.26968036 -13.9296875 68.703125 C-15.29359199 74.20678655 -16.70619594 79.69777356 -18.125 85.1875 C-18.37894531 86.18064209 -18.63289063 87.17378418 -18.89453125 88.19702148 C-19.13816406 89.13618408 -19.38179688 90.07534668 -19.6328125 91.04296875 C-19.84824707 91.87852295 -20.06368164 92.71407715 -20.28564453 93.57495117 C-22.35301916 100.59314398 -22.35301916 100.59314398 -26.16796875 102.9921875 C-27.49974413 103.63673587 -28.84027561 104.26339989 -30.1875 104.875 C-31.25411865 105.38208496 -31.25411865 105.38208496 -32.34228516 105.89941406 C-33.82321263 106.60075093 -35.30766313 107.29469326 -36.79541016 107.98144531 C-38.88635003 108.94749195 -40.96584558 109.93434604 -43.04296875 110.9296875 C-51.83852148 115.12348331 -60.6955556 119.0617544 -70 122 C-70 121.01 -70 120.02 -70 119 C-68.02 118.505 -68.02 118.505 -66 118 C-66.99 117.01 -67.98 116.02 -69 115 C-68.505 114.01 -68.505 114.01 -68 113 C-73.0302076 113.52537724 -78.01885239 114.10594786 -83 115 C-80.65085508 112.65085508 -79.04320554 112.26859643 -75.875 111.375 C-74.50988281 110.98441406 -74.50988281 110.98441406 -73.1171875 110.5859375 C-72.41851562 110.39257812 -71.71984375 110.19921875 -71 110 C-70.9498877 109.24904053 -70.89977539 108.49808105 -70.84814453 107.72436523 C-70.61487163 104.29483042 -70.37003872 100.86621341 -70.125 97.4375 C-70.00705078 95.66536133 -70.00705078 95.66536133 -69.88671875 93.85742188 C-69.64680543 90.56322749 -69.35105346 87.28409175 -69 84 C-68.89002686 82.91440796 -68.89002686 82.91440796 -68.77783203 81.80688477 C-68.06396615 77.90316554 -66.28323891 76.15986149 -63.2265625 73.91015625 C-61.70590128 72.93994271 -60.17141287 71.99111836 -58.625 71.0625 C-57.85671875 70.56943359 -57.0884375 70.07636719 -56.296875 69.56835938 C-50.57562197 66 -50.57562197 66 -46 66 C-46.56229699 69.75983661 -48.09311418 71.41683574 -50.8125 74 C-51.49957031 74.66 -52.18664062 75.32 -52.89453125 76 C-55 78 -55 78 -57.27734375 79.546875 C-60.20447103 83.71521045 -59.14249901 88.34064732 -58.75 93.25 C-58.65138672 94.796875 -58.65138672 94.796875 -58.55078125 96.375 C-58.38592189 98.91854445 -58.20169465 101.45915488 -58 104 C-56.33324219 103.31164062 -56.33324219 103.31164062 -54.6328125 102.609375 C-53.91641602 102.31474365 -53.20001953 102.0201123 -52.46191406 101.71655273 C-50.89606129 101.06891262 -49.33291093 100.41470202 -47.77246094 99.75415039 C-44.46679198 98.36484621 -41.2858741 97.07761447 -37.8203125 96.13671875 C-33.72820939 95.02351745 -31.65384747 94.14082761 -29.5 90.3828125 C-28.36747874 87.37455291 -27.43727893 84.37625777 -26.61816406 81.26904297 C-25.92366649 78.71980897 -25.13474307 76.2098502 -24.3359375 73.69140625 C-23.7634323 71.83661288 -23.19311085 69.98114404 -22.625 68.125 C-22.21169434 66.80640991 -22.21169434 66.80640991 -21.79003906 65.46118164 C-20.13143125 59.76659221 -19.8616902 55.82581116 -21 50 C-21.25169085 48.57298518 -21.50298578 47.14590048 -21.75390625 45.71875 C-22.02092432 44.31202064 -22.29045815 42.90576648 -22.5625 41.5 C-22.77036133 40.40945312 -22.77036133 40.40945312 -22.98242188 39.296875 C-23.31936665 37.53081963 -23.65935683 35.76534574 -24 34 C-20.2109375 34.7109375 -20.2109375 34.7109375 -18.3125 37.3125 C-17.19335784 39.60407681 -16.61089216 41.55643134 -16 44 C-15.34 44.33 -14.68 44.66 -14 45 C-13.88834503 44.45187149 -13.77669006 43.90374298 -13.66165161 43.33900452 C-12.49674971 37.83855089 -10.98995065 32.56572542 -9.1796875 27.24609375 C-8.91616486 26.45977066 -8.65264221 25.67344757 -8.38113403 24.86329651 C-7.55002403 22.38657143 -6.71263545 19.91202477 -5.875 17.4375 C-5.30557042 15.74428153 -4.73655625 14.0509233 -4.16796875 12.35742188 C-2.78343627 8.23665217 -1.39327428 4.11782181 0 0 Z " fill="#AFA18D" transform="translate(402,111)"/>
<path d="M0 0 C3.71647815 4.43118549 6.82567311 9.17798224 10 14 C11.70541183 16.56444973 13.41536209 19.12586639 15.125 21.6875 C15.96101156 22.94135687 16.79695121 24.19526169 17.6328125 25.44921875 C18.23270996 26.33939697 18.23270996 26.33939697 18.84472656 27.24755859 C19.95761376 28.93570405 21.00766892 30.66476101 22.0546875 32.39453125 C23.73563873 35.12598818 23.73563873 35.12598818 26.25 35.875 C26.8275 35.91625 27.405 35.9575 28 36 C31.28564506 31.37616176 34.52991877 26.72938618 37.65625 21.99609375 C38.10629395 21.31490479 38.55633789 20.63371582 39.02001953 19.93188477 C39.91987641 18.56588581 40.81671434 17.19789309 41.71044922 15.82788086 C42.78174779 14.20169062 43.88756247 12.59832978 45 11 C45.33 11 45.66 11 46 11 C46.495 13.97 46.495 13.97 47 17 C46.13375 17.3403125 46.13375 17.3403125 45.25 17.6875 C41.43916226 19.91048868 39.38070336 22.85788992 38 27 C38.66 27.33 39.32 27.66 40 28 C40 26.35 40 24.7 40 23 C40.763125 22.731875 41.52625 22.46375 42.3125 22.1875 C44.87380884 21.05575888 46.19692938 20.08776599 48 18 C50.42857143 24.28571429 50.42857143 24.28571429 49 28 C48.01 25.03 48.01 25.03 47 22 C45.26907429 23.8734012 43.54023837 25.74866282 41.8125 27.625 C41.08836914 28.40810547 41.08836914 28.40810547 40.34960938 29.20703125 C37.90893916 31.86064585 35.53775145 34.53916725 33.26171875 37.3359375 C30.71415891 40.33669019 30.0292899 40.84820865 26.21875 41.41015625 C21.8759085 40.85676019 20.1566299 38.6488422 17.5 35.4375 C17.0258667 34.8919043 16.5517334 34.34630859 16.06323242 33.78417969 C14.69324525 32.20200043 13.34566117 30.60286655 12 29 C10.77108964 27.58311099 9.54198516 26.16639027 8.3125 24.75 C7.1678125 23.38875 7.1678125 23.38875 6 22 C5.72027344 22.96035156 5.44054687 23.92070312 5.15234375 24.91015625 C2.33950581 34.53402915 -0.54734339 44.13319266 -3.50024414 53.71508789 C-4.34573975 56.473193 -5.17472957 59.2357825 -6 62 C-6.30131836 62.9787207 -6.60263672 63.95744141 -6.91308594 64.96582031 C-7.19700195 65.92842773 -7.48091797 66.89103516 -7.7734375 67.8828125 C-8.03302246 68.74535645 -8.29260742 69.60790039 -8.56005859 70.49658203 C-9.07133523 73.405922 -8.93155636 75.19738586 -8 78 C-6.44125336 79.98426464 -6.44125336 79.98426464 -4.40234375 81.69921875 C-3.68369141 82.35083984 -2.96503906 83.00246094 -2.22460938 83.67382812 C-1.46986328 84.33833984 -0.71511719 85.00285156 0.0625 85.6875 C1.55760969 87.02001493 3.04872818 88.35702629 4.53515625 89.69921875 C5.53107788 90.57839966 5.53107788 90.57839966 6.54711914 91.4753418 C8 93 8 93 8 95 C8.82757813 95.34224609 8.82757813 95.34224609 9.671875 95.69140625 C12.67431736 97.37902066 14.8113945 99.50959014 17.25 101.9375 C18.14203125 102.81277344 19.0340625 103.68804687 19.953125 104.58984375 C22 107 22 107 22 110 C20.35 109.67 18.7 109.34 17 109 C17 108.34 17 107.68 17 107 C16.35675781 106.77828125 15.71351563 106.5565625 15.05078125 106.328125 C10.85961004 104.50354342 7.07449687 102.1444671 3.1875 99.75 C2.41857422 99.28464844 1.64964844 98.81929688 0.85742188 98.33984375 C-3.68321703 95.55798397 -7.96755906 92.58468741 -12.1940918 89.34765625 C-14.53478101 87.60092049 -16.97850834 86.09587014 -19.5 84.625 C-20.78390625 83.87089844 -20.78390625 83.87089844 -22.09375 83.1015625 C-22.7228125 82.73804688 -23.351875 82.37453125 -24 82 C-23.66214553 76.31472477 -23.01435344 71.37124131 -20.79077148 66.11230469 C-19.99901784 63.99737647 -19.51561741 61.98200779 -19.07421875 59.76953125 C-18.11393755 55.2956701 -16.76237631 51.06307318 -15.25 46.75 C-12.88374654 39.81967726 -10.71276022 32.85009336 -8.6875 25.8125 C-8.43323242 24.94012695 -8.17896484 24.06775391 -7.91699219 23.16894531 C-6.57900598 18.46323872 -5.32946659 13.89226804 -5 9 C-5.66 8.01 -6.32 7.02 -7 6 C-5.02 6.66 -3.04 7.32 -1 8 C-1 7.34 -1 6.68 -1 6 C-0.34 6 0.32 6 1 6 C0.67 4.02 0.34 2.04 0 0 Z " fill="#BEAF98" transform="translate(223,278)"/>
<path d="M0 0 C3.71579946 1.48182335 3.71579946 1.48182335 4.96109009 3.75233459 C5.17711884 4.45547287 5.39314758 5.15861115 5.61572266 5.88305664 C5.86923492 6.68050797 6.12274719 7.47795929 6.38394165 8.29957581 C6.64138153 9.16106735 6.89882141 10.0225589 7.1640625 10.91015625 C7.44220795 11.79279648 7.72035339 12.67543671 8.00692749 13.58482361 C8.89409533 16.40643526 9.76075856 19.23378977 10.625 22.0625 C11.49898706 24.89384391 12.37729938 27.72365466 13.26449585 30.55088806 C13.81597975 32.3111268 14.35934463 34.07393296 14.89395142 35.83937073 C15.53887233 37.91155387 16.26220116 39.95903973 17 42 C17.66 42.33 18.32 42.66 19 43 C20.65 39.7 22.3 36.4 24 33 C24.99 33 25.98 33 27 33 C25.99799429 39.29984444 25.00573642 45.52645816 23.26953125 51.671875 C22.36344343 59.49837273 25.41053391 66.8036222 27.9375 74.0625 C28.65627244 76.15709803 29.37375459 78.25213935 30.08984375 80.34765625 C30.43539307 81.32782715 30.78094238 82.30799805 31.13696289 83.31787109 C31.8622414 85.57187665 32.29409483 87.65697 32.6796875 89.98046875 C34.46109779 94.05452246 36.56572296 94.71755704 40.58789062 96.3125 C41.87469727 96.7765625 41.87469727 96.7765625 43.1875 97.25 C44.02603516 97.57484375 44.86457031 97.8996875 45.72851562 98.234375 C47.37302984 98.87112679 49.02125684 99.49838627 50.67333984 100.11523438 C53.82704923 101.31450435 56.91024269 102.64535674 60 104 C63.08747687 100.91252313 62.12745195 92.08763501 62.2578125 87.92578125 C62.20991283 83.77009853 61.76393169 81.29532114 58.875 78.125 C57.61173164 77.04907004 56.3207058 76.00459366 55 75 C50 69.67901235 50 69.67901235 50 66 C54.6883436 67.6981402 58.91856856 70.06162223 63.25 72.5 C64.34828125 73.10521484 64.34828125 73.10521484 65.46875 73.72265625 C66.16484375 74.11324219 66.8609375 74.50382812 67.578125 74.90625 C68.21137695 75.26009766 68.84462891 75.61394531 69.49707031 75.97851562 C71 77 71 77 72 79 C72.08342159 80.44848582 72.10732861 81.90070869 72.09765625 83.3515625 C72.09282227 84.62773437 72.09282227 84.62773437 72.08789062 85.9296875 C72.07532227 87.26386719 72.07532227 87.26386719 72.0625 88.625 C72.05798828 89.5221875 72.05347656 90.419375 72.04882812 91.34375 C72.03702591 93.56256648 72.02056155 95.78125018 72 98 C71.67 98 71.34 98 71 98 C70.67 94.37 70.34 90.74 70 87 C69.34 87.99 68.68 88.98 68 90 C67.34 90 66.68 90 66 90 C64.27324059 93.7643355 63.76296909 96.81434684 63.625 100.9375 C63.28026512 106.21259409 62.43240024 109.01398681 59 113 C58.01 112.34 57.02 111.68 56 111 C56 111.99 56 112.98 56 114 C49.73240721 112.02267376 43.69680531 109.7203646 37.6875 107.0625 C36.90310547 106.72798828 36.11871094 106.39347656 35.31054688 106.04882812 C34.55193359 105.71431641 33.79332031 105.37980469 33.01171875 105.03515625 C32.33584717 104.7400415 31.65997559 104.44492676 30.96362305 104.14086914 C26.25437087 101.40478368 24.53433765 98.50713011 23.12815857 93.25007629 C22.9427803 92.5011058 22.75740204 91.75213531 22.56640625 90.98046875 C22.35907364 90.18980515 22.15174103 89.39914154 21.93812561 88.58451843 C21.27920626 86.05947995 20.63937145 83.53005042 20 81 C19.57795004 79.3715727 19.15462411 77.74347553 18.72998047 76.11572266 C17.44821973 71.18575483 16.19126405 66.2496496 14.9375 61.3125 C9.50127449 39.64582432 9.50127449 39.64582432 3.3125 18.1875 C1.4611893 12.09467566 0.30449609 6.39441799 0 0 Z " fill="#B0A28D" transform="translate(94,111)"/>
<path d="M0 0 C0.66 0.99 1.32 1.98 2 3 C2.66 3.33 3.32 3.66 4 4 C2.02 4.99 2.02 4.99 0 6 C-0.042721 7.66611905 -0.04063832 9.33382885 0 11 C0.33 11.33 0.66 11.66 1 12 C1.66 11.34 2.32 10.68 3 10 C3.99 10 4.98 10 6 10 C6 11.98 6 13.96 6 16 C6.66 14.35 7.32 12.7 8 11 C8.33 11 8.66 11 9 11 C8.35262124 17.66197909 6.73588678 23.57226523 4.640625 29.90820312 C4.41632813 30.62298828 4.19203125 31.33777344 3.9609375 32.07421875 C3.75259277 32.70932373 3.54424805 33.34442871 3.32958984 33.9987793 C2.89311188 36.64900882 3.19121436 38.43855197 4 41 C5.55874664 42.98426464 5.55874664 42.98426464 7.59765625 44.69921875 C8.31630859 45.35083984 9.03496094 46.00246094 9.77539062 46.67382812 C10.53013672 47.33833984 11.28488281 48.00285156 12.0625 48.6875 C13.55760969 50.02001493 15.04872818 51.35702629 16.53515625 52.69921875 C17.53107788 53.57839966 17.53107788 53.57839966 18.54711914 54.4753418 C20 56 20 56 20 58 C20.82757813 58.34224609 20.82757813 58.34224609 21.671875 58.69140625 C24.67431736 60.37902066 26.8113945 62.50959014 29.25 64.9375 C30.14203125 65.81277344 31.0340625 66.68804687 31.953125 67.58984375 C34 70 34 70 34 73 C32.35 72.67 30.7 72.34 29 72 C29 71.34 29 70.68 29 70 C28.35675781 69.77828125 27.71351563 69.5565625 27.05078125 69.328125 C22.85961004 67.50354342 19.07449687 65.1444671 15.1875 62.75 C14.41857422 62.28464844 13.64964844 61.81929688 12.85742188 61.33984375 C8.31678297 58.55798397 4.03244094 55.58468741 -0.1940918 52.34765625 C-2.53478101 50.60092049 -4.97850834 49.09587014 -7.5 47.625 C-8.3559375 47.12226563 -9.211875 46.61953125 -10.09375 46.1015625 C-10.7228125 45.73804688 -11.351875 45.37453125 -12 45 C-11.66199949 39.31226728 -11.01200255 34.36879796 -8.78930664 29.10717773 C-8.00687666 27.01835832 -7.53053002 25.03721199 -7.09765625 22.8515625 C-6.03963934 17.91532975 -4.5157863 13.20677117 -2.875 8.4375 C-2.59785156 7.61958984 -2.32070312 6.80167969 -2.03515625 5.95898438 C-1.36094863 3.97123432 -0.68107796 1.98540651 0 0 Z " fill="#AA9C87" transform="translate(211,315)"/>
<path d="M0 0 C0.66 0.99 1.32 1.98 2 3 C2.99 3.66 3.98 4.32 5 5 C4.34 5 3.68 5 3 5 C3 5.99 3 6.98 3 8 C5.64 7.34 8.28 6.68 11 6 C11 6.99 11 7.98 11 9 C11.77772405 6.66682784 12.42415568 4.38564077 13 2 C14.2338767 5.9308483 15.46461239 9.86259384 16.6875 13.796875 C17.44396374 16.2292972 18.21289344 18.65531261 19 21.078125 C19.268125 21.91859375 19.53625 22.7590625 19.8125 23.625 C20.16248047 24.69621094 20.16248047 24.69621094 20.51953125 25.7890625 C21.15147453 28.69702912 21.36383146 31.0339827 21 34 C19.12109375 35.765625 19.12109375 35.765625 16.4375 37.25 C11.70812659 40.00020045 7.14774973 42.86618046 2.625 45.9375 C-4.13914047 50.48176549 -11.02198449 54.79180959 -18 59 C-18.90492188 59.56847656 -19.80984375 60.13695312 -20.7421875 60.72265625 C-23 62 -23 62 -25 62 C-25 61.01 -25 60.02 -25 59 C-24.34 59 -23.68 59 -23 59 C-22.34 57.68 -21.68 56.36 -21 55 C-20.34 55 -19.68 55 -19 55 C-19 54.34 -19 53.68 -19 53 C-18.34 53 -17.68 53 -17 53 C-16.773125 52.443125 -16.54625 51.88625 -16.3125 51.3125 C-14.62449964 48.33840412 -12.53323483 46.27991135 -10 44 C-9.34 44 -8.68 44 -8 44 C-7.79375 43.443125 -7.5875 42.88625 -7.375 42.3125 C-5.83158178 39.71675117 -3.93290467 38.15991992 -1.59375 36.28515625 C2.65283159 32.86082943 5.39722616 30.53097491 6 25 C5.6092748 22.64269547 5.6092748 22.64269547 4.78515625 20.3125 C4.37426758 19.01699219 4.37426758 19.01699219 3.95507812 17.6953125 C3.66052734 16.80585938 3.36597656 15.91640625 3.0625 15 C2.48445384 13.23125565 1.91262354 11.46046528 1.34765625 9.6875 C0.96105835 8.51767578 0.96105835 8.51767578 0.56665039 7.32421875 C-0.04719579 4.80641796 -0.0985331 2.58185271 0 0 Z " fill="#B3A38F" transform="translate(279,326)"/>
<path d="M0 0 C0.99 0.66 1.98 1.32 3 2 C3.66 2.33 4.32 2.66 5 3 C5.39465208 5.58317727 5.50806152 8.14188281 5.65625 10.75 C5.7696875 11.4925 5.883125 12.235 6 13 C6.66 13.33 7.32 13.66 8 14 C8.74609375 15.94604492 8.74609375 15.94604492 9.4375 18.48046875 C9.69273437 19.39763672 9.94796875 20.31480469 10.2109375 21.25976562 C10.60152344 22.70899414 10.60152344 22.70899414 11 24.1875 C11.51968306 26.07713964 12.0404881 27.96647113 12.5625 29.85546875 C12.80838867 30.75346191 13.05427734 31.65145508 13.30761719 32.57666016 C13.85665366 34.49828782 14.48511394 36.3971946 15.140625 38.28515625 C16.09603535 41.30338442 16.48075768 44.09828106 16.75 47.25 C16.84796875 48.28640625 16.9459375 49.3228125 17.046875 50.390625 C17 53 17 53 15 55 C15 54.01 15 53.02 15 52 C14.34 52 13.68 52 13 52 C11 52 9 52 7 52 C6.33333333 49.33333333 5.66666667 46.66666667 5 44 C4.34 44 3.68 44 3 44 C0.01906287 34.3972865 -2.70826737 25.00610797 -4 15 C-4.8971875 15.9590625 -4.8971875 15.9590625 -5.8125 16.9375 C-8 19 -8 19 -11 20 C-11.73323796 22.01508358 -11.73323796 22.01508358 -12 24 C-12.99 23.67 -13.98 23.34 -15 23 C-14.01 21.02 -13.02 19.04 -12 17 C-11.34 17 -10.68 17 -10 17 C-9.71125 16.360625 -9.4225 15.72125 -9.125 15.0625 C-8 13 -8 13 -6 12 C-6.1546875 10.9171875 -6.1546875 10.9171875 -6.3125 9.8125 C-5.8747126 5.87241336 -3.8720261 4.59182843 -1 2 C-0.67 1.34 -0.34 0.68 0 0 Z " fill="#B8A993" transform="translate(275,282)"/>
<path d="M0 0 C0.99 0 1.98 0 3 0 C2.23372332 6.83678026 0.50165466 13.40320261 -1.1875 20.0625 C-1.49921143 21.3009668 -1.81092285 22.53943359 -2.13208008 23.81542969 C-4.30220045 32.38572483 -6.57858256 40.92262458 -8.93139648 49.44433594 C-11.90512753 60.22750967 -14.65591107 71.06091834 -17 82 C-17.33 82 -17.66 82 -18 82 C-18.08159574 77.83861737 -17.98248524 74.0527516 -17 70 C-17.66 70 -18.32 70 -19 70 C-19.33 69.34 -19.66 68.68 -20 68 C-21.32 70.97 -22.64 73.94 -24 77 C-25.51863596 72.44409211 -23.34070138 68.5953276 -21.73828125 64.24414062 C-20.02084466 59.21992695 -19.94494048 55.22550685 -21 50 C-21.1232666 49.29786377 -21.2465332 48.59572754 -21.37353516 47.87231445 C-21.74947745 45.74382475 -22.15184553 43.62204225 -22.5625 41.5 C-22.70107422 40.77296875 -22.83964844 40.0459375 -22.98242188 39.296875 C-23.31936665 37.53081963 -23.65935683 35.76534574 -24 34 C-20.2109375 34.7109375 -20.2109375 34.7109375 -18.3125 37.3125 C-17.19335784 39.60407681 -16.61089216 41.55643134 -16 44 C-15.34 44.33 -14.68 44.66 -14 45 C-13.88834503 44.45187149 -13.77669006 43.90374298 -13.66165161 43.33900452 C-12.49674971 37.83855089 -10.98995065 32.56572542 -9.1796875 27.24609375 C-8.91616486 26.45977066 -8.65264221 25.67344757 -8.38113403 24.86329651 C-7.55002403 22.38657143 -6.71263545 19.91202477 -5.875 17.4375 C-5.30557042 15.74428153 -4.73655625 14.0509233 -4.16796875 12.35742188 C-2.78343627 8.23665217 -1.39327428 4.11782181 0 0 Z " fill="#9C8D7A" transform="translate(402,111)"/>
<path d="M0 0 C0.33 0.99 0.66 1.98 1 3 C1.66 3 2.32 3 3 3 C2.84738796 13.55797866 2.3077128 24.59488421 -3 34 C-5.94921875 35.3125 -5.94921875 35.3125 -9 36 C-10.19625 36.53625 -11.3925 37.0725 -12.625 37.625 C-16 39 -16 39 -20 39 C-20 39.66 -20 40.32 -20 41 C-21.65 40.67 -23.3 40.34 -25 40 C-25.495 38.515 -25.495 38.515 -26 37 C-24.35 36.34 -22.7 35.68 -21 35 C-21 35.99 -21 36.98 -21 38 C-20.01 37.505 -20.01 37.505 -19 37 C-18.6147022 35.00929469 -18.23469024 33.01581724 -17.953125 31.0078125 C-17 29 -17 29 -14.125 27.7421875 C-9.77983539 25.31975823 -9.185323 22.5832473 -7.75 18 C-5.14821429 10.22232143 -5.14821429 10.22232143 -3 7 C-2.32136945 5.0040278 -1.65358081 3.00431449 -1 1 C-0.67 0.67 -0.34 0.34 0 0 Z " fill="#AA9D8A" transform="translate(382,178)"/>
<path d="M0 0 C-0.56229699 3.75983661 -2.09311418 5.41683574 -4.8125 8 C-5.49957031 8.66 -6.18664062 9.32 -6.89453125 10 C-8.25432613 11.29167899 -9.6528907 12.54424055 -11.09350586 13.74511719 C-13.54841912 16.64863606 -13.53551884 18.31146062 -13.609375 22.078125 C-13.64160156 23.23828125 -13.67382812 24.3984375 -13.70703125 25.59375 C-13.72830078 27.40359375 -13.72830078 27.40359375 -13.75 29.25 C-13.77964844 30.47203125 -13.80929687 31.6940625 -13.83984375 32.953125 C-13.91052402 35.96881644 -13.96323175 38.9837355 -14 42 C-14.495 40.515 -14.495 40.515 -15 39 C-18.58327753 37.99782936 -18.58327753 37.99782936 -22 39 C-22.29176878 34.64725867 -22.46842365 30.29703308 -22.625 25.9375 C-22.70878906 24.70837891 -22.79257812 23.47925781 -22.87890625 22.21289062 C-23.12093028 13.23379904 -23.12093028 13.23379904 -19.88330078 9.67016602 C-17.32726793 7.87764491 -14.7759047 6.42193235 -12 5 C-10.52965447 4.03896541 -9.06870945 3.06310307 -7.625 2.0625 C-4.58794657 0.05287529 -3.94840288 0 0 0 Z " fill="#C0B19B" transform="translate(356,177)"/>
<path d="M0 0 C3.71579946 1.48182335 3.71579946 1.48182335 4.96109009 3.75233459 C5.17711884 4.45547287 5.39314758 5.15861115 5.61572266 5.88305664 C5.86923492 6.68050797 6.12274719 7.47795929 6.38394165 8.29957581 C6.64138153 9.16106735 6.89882141 10.0225589 7.1640625 10.91015625 C7.44220795 11.79279648 7.72035339 12.67543671 8.00692749 13.58482361 C8.89409533 16.40643526 9.76075856 19.23378977 10.625 22.0625 C11.49898706 24.89384391 12.37729938 27.72365466 13.26449585 30.55088806 C13.81597975 32.3111268 14.35934463 34.07393296 14.89395142 35.83937073 C15.53887233 37.91155387 16.26220116 39.95903973 17 42 C17.66 42.33 18.32 42.66 19 43 C20.65 39.7 22.3 36.4 24 33 C24.99 33 25.98 33 27 33 C26 36 26 36 24.60546875 37.765625 C22.56922088 40.59952715 21.52180321 43.48161296 20.3125 46.75 C19.87550781 47.92046875 19.43851563 49.0909375 18.98828125 50.296875 C18.66214844 51.18890625 18.33601563 52.0809375 18 53 C17.34 53 16.68 53 16 53 C16 55.64 16 58.28 16 61 C14.1459868 57.65890842 13.189105 54.3358742 12.23046875 50.64453125 C11.90119385 49.38995117 11.57191895 48.13537109 11.23266602 46.84277344 C10.88420453 45.49936784 10.53581721 44.15594301 10.1875 42.8125 C9.4745215 40.0837978 8.75792433 37.35606414 8.0390625 34.62890625 C7.86337234 33.9618869 7.68768219 33.29486755 7.50666809 32.6076355 C6.13960852 27.4507819 4.63760986 22.34629678 3.0625 17.25 C1.29470967 11.48626696 0.28725678 6.0323923 0 0 Z " fill="#6D6152" transform="translate(94,111)"/>
<path d="M0 0 C0.33 0 0.66 0 1 0 C1.08302368 0.84763916 1.08302368 0.84763916 1.16772461 1.71240234 C1.42024372 4.26702332 1.67879723 6.82099815 1.9375 9.375 C2.02451172 10.26445312 2.11152344 11.15390625 2.20117188 12.0703125 C2.28818359 12.92109375 2.37519531 13.771875 2.46484375 14.6484375 C2.543396 15.43395996 2.62194824 16.21948242 2.70288086 17.02880859 C2.90696298 19.07134803 2.90696298 19.07134803 4 21 C4.1229938 23.12235807 4.17555682 25.24911463 4.1875 27.375 C4.20167969 28.51710937 4.21585938 29.65921875 4.23046875 30.8359375 C4.01170034 33.83936816 3.57080637 35.47925934 2 38 C1.01 38 0.02 38 -1 38 C-1 38.33 -1 38.66 -1 39 C-9.19256018 38.64989059 -9.19256018 38.64989059 -12.5625 35.9375 C-13.036875 35.298125 -13.51125 34.65875 -14 34 C-13.67 33.01 -13.34 32.02 -13 31 C-11.515 31.99 -11.515 31.99 -10 33 C-7.39945559 29.23059388 -6.64069279 26.61742924 -6.5 22.0625 C-6.2193126 17.21914928 -5.6027408 14.07385517 -3 10 C-2.34 10 -1.68 10 -1 10 C-0.67 6.7 -0.34 3.4 0 0 Z " fill="#BBAC94" transform="translate(163,190)"/>
<path d="M0 0 C2.44140066 2.54312569 2.99243527 3.93948214 3.4375 7.5 C3 11 3 11 1.125 13.4375 C-1 15 -1 15 -3 15 C-3.99 17.475 -3.99 17.475 -5 20 C-4.4225 19.79375 -3.845 19.5875 -3.25 19.375 C-0.48032433 18.91338739 0.64561267 19.57055055 3 21 C1.50510885 25.23711186 -1.51977296 26.95581688 -5.1875 29.1875 C-5.79883789 29.56898193 -6.41017578 29.95046387 -7.04003906 30.34350586 C-9.02010271 31.57338557 -11.00947589 32.78713585 -13 34 C-14.39715712 34.86194398 -15.79429251 35.7239232 -17.19140625 36.5859375 C-18.5435215 37.41268509 -19.89636647 38.23824064 -21.25 39.0625 C-22.21522583 39.65357544 -22.21522583 39.65357544 -23.19995117 40.2565918 C-27.76534092 43 -27.76534092 43 -30 43 C-30 42.01 -30 41.02 -30 40 C-29.34 40 -28.68 40 -28 40 C-27.34 38.68 -26.68 37.36 -26 36 C-25.34 36 -24.68 36 -24 36 C-24 35.34 -24 34.68 -24 34 C-23.34 34 -22.68 34 -22 34 C-21.773125 33.443125 -21.54625 32.88625 -21.3125 32.3125 C-19.62449964 29.33840412 -17.53323483 27.27991135 -15 25 C-14.34 25 -13.68 25 -13 25 C-12.79375 24.443125 -12.5875 23.88625 -12.375 23.3125 C-10.83158178 20.71675117 -8.93290467 19.15991992 -6.59375 17.28515625 C-1.96809876 13.59923195 -1.96809876 13.59923195 0.875 8.5625 C1.02076055 5.57440877 0.61157861 2.9219867 0 0 Z " fill="#A89886" transform="translate(284,345)"/>
<path d="M0 0 C0.33 0 0.66 0 1 0 C1.29224316 5.06554807 0.80560282 9.09970445 -0.5625 14 C-1.96993528 19.29115999 -2.13761474 22.66196163 -1 28 C-0.82726562 28.82113281 -0.65453125 29.64226562 -0.4765625 30.48828125 C-0.00926158 32.66563264 0.48353968 34.83387516 1 37 C-0.32 35.68 -1.64 34.36 -3 33 C-5.83022097 36.99560608 -4.76210446 40.42737323 -4 45 C-3.01 45.33 -2.02 45.66 -1 46 C1.26415094 51.20754717 1.26415094 51.20754717 0 55 C0.24132128 57.0720344 0.56239629 59.13546206 0.9375 61.1875 C1.13214844 62.27417969 1.32679687 63.36085937 1.52734375 64.48046875 C1.68332031 65.31191406 1.83929688 66.14335937 2 67 C-0.55685849 63.97187216 -1.62394975 61.44755269 -2.53515625 57.60546875 C-2.91317383 56.04795898 -2.91317383 56.04795898 -3.29882812 54.45898438 C-3.55083984 53.37939453 -3.80285156 52.29980469 -4.0625 51.1875 C-4.57324379 49.05575576 -5.08493876 46.92423915 -5.59765625 44.79296875 C-5.83709961 43.78355225 -6.07654297 42.77413574 -6.32324219 41.73413086 C-6.8662711 39.54027054 -7.49224693 37.36701701 -8.14453125 35.203125 C-9.1018576 31.61861536 -9.41352655 28.26328539 -9.625 24.5625 C-9.69976562 23.32628906 -9.77453125 22.09007812 -9.8515625 20.81640625 C-9.92503906 19.42228516 -9.92503906 19.42228516 -10 18 C-8.68 17.67 -7.36 17.34 -6 17 C-5.938125 16.236875 -5.87625 15.47375 -5.8125 14.6875 C-4.65512209 9.43478486 -2.32802005 4.8278497 0 0 Z " fill="#887769" transform="translate(119,145)"/>
<path d="M0 0 C4.6883436 1.6981402 8.91856856 4.06162223 13.25 6.5 C13.9821875 6.90347656 14.714375 7.30695313 15.46875 7.72265625 C16.16484375 8.11324219 16.8609375 8.50382813 17.578125 8.90625 C18.21137695 9.26009766 18.84462891 9.61394531 19.49707031 9.97851562 C21 11 21 11 22 13 C22.08342159 14.44848582 22.10732861 15.90070869 22.09765625 17.3515625 C22.09443359 18.20234375 22.09121094 19.053125 22.08789062 19.9296875 C22.07951172 20.81914062 22.07113281 21.70859375 22.0625 22.625 C22.05798828 23.5221875 22.05347656 24.419375 22.04882812 25.34375 C22.03702591 27.56256648 22.02056155 29.78125018 22 32 C21.67 32 21.34 32 21 32 C20.67 28.37 20.34 24.74 20 21 C19.34 21.99 18.68 22.98 18 24 C17.34 24 16.68 24 16 24 C14.35199144 27.66447432 13.66419027 30.81203466 13.375 34.8125 C13.30023438 35.78832031 13.22546875 36.76414063 13.1484375 37.76953125 C13.09945312 38.50558594 13.05046875 39.24164063 13 40 C12.01 39.67 11.02 39.34 10 39 C10.33 38.34 10.66 37.68 11 37 C12.95681784 25.34163913 12.95681784 25.34163913 10.6796875 14.109375 C8.9045488 12.15749089 7.09686372 10.59497748 5 9 C0 3.67901235 0 3.67901235 0 0 Z " fill="#968778" transform="translate(144,177)"/>
<path d="M0 0 C0.33 0 0.66 0 1 0 C1.495 2.97 1.495 2.97 2 6 C1.4225 6.226875 0.845 6.45375 0.25 6.6875 C-3.56083774 8.91048868 -5.61929664 11.85788992 -7 16 C-6.34 16.33 -5.68 16.66 -5 17 C-5 15.35 -5 13.7 -5 12 C-3.8553125 11.5978125 -3.8553125 11.5978125 -2.6875 11.1875 C-0.12619116 10.05575888 1.19692938 9.08776599 3 7 C5.42857143 13.28571429 5.42857143 13.28571429 4 17 C3.34 15.02 2.68 13.04 2 11 C0.26907429 12.8734012 -1.45976163 14.74866282 -3.1875 16.625 C-3.67025391 17.14707031 -4.15300781 17.66914063 -4.65039062 18.20703125 C-7.09106084 20.86064585 -9.46224855 23.53916725 -11.73828125 26.3359375 C-14.27834892 29.32786523 -14.97095602 29.84302719 -18.765625 30.421875 C-23.18857159 29.84496892 -25.01736851 27.50493502 -27.75 24.25 C-28.23082031 23.71117187 -28.71164063 23.17234375 -29.20703125 22.6171875 C-31.57571466 19.91200588 -33.609623 17.33043793 -35 14 C-32 15.5 -32 15.5 -29 17 C-29.66 15.02 -30.32 13.04 -31 11 C-27.35534115 14.22412129 -25.04937302 17.94519859 -22.5625 22.07421875 C-20.77196212 24.28105668 -19.76983885 24.64780066 -17 25 C-13.71435494 20.37616176 -10.47008123 15.72938618 -7.34375 10.99609375 C-6.89370605 10.31490479 -6.44366211 9.63371582 -5.97998047 8.93188477 C-5.08012359 7.56588581 -4.18328566 6.19789309 -3.28955078 4.82788086 C-2.21825221 3.20169062 -1.11243753 1.59832978 0 0 Z " fill="#574E48" transform="translate(268,289)"/>
<path d="M0 0 C2 1 2 1 3.6875 2.5625 C6.93264895 4.57975475 9.23890026 4.32992103 13 4 C14.66967972 3.3409159 16.33607955 2.67349161 18 2 C20.98990545 1.53962539 23.98579537 1.249542 27 1 C27 1.99 27 2.98 27 4 C24.59785852 6.33974819 21.77097947 8.12161923 19 10 C18.42636719 10.42152344 17.85273438 10.84304687 17.26171875 11.27734375 C11.67303984 15.02535992 5.9542709 14.75380285 -0.41796875 13.5390625 C-2.29295692 13.08110079 -4.14941791 12.54832062 -6 12 C-6 11.67 -6 11.34 -6 11 C-2.535 10.505 -2.535 10.505 1 10 C1 9.01 1 8.02 1 7 C0.34 6.67 -0.32 6.34 -1 6 C-1 6.66 -1 7.32 -1 8 C-1.66 8 -2.32 8 -3 8 C-2.74438677 5.6568787 -2.40729228 3.32156597 -2 1 C-1.34 0.67 -0.68 0.34 0 0 Z " fill="#A1917F" transform="translate(328,234)"/>
<path d="M0 0 C-1.20398438 0.43828125 -2.40796875 0.8765625 -3.6484375 1.328125 C-12.30328132 4.4052028 -12.30328132 4.4052028 -18.50390625 10.640625 C-18.98451991 13.81007721 -19.02914452 16.79410295 -19 20 C-19.23425406 22.84373538 -19.58743717 25.66858103 -19.9375 28.5 C-20.00122803 29.18255859 -20.06495605 29.86511719 -20.13061523 30.56835938 C-20.56933821 34.68426685 -21.51340521 36.7852863 -24 40 C-24.1497344 42.37441738 -24.1497344 42.37441738 -23.6875 44.75 C-23.56761719 45.54921875 -23.44773437 46.3484375 -23.32421875 47.171875 C-23.21722656 47.77515625 -23.11023438 48.3784375 -23 49 C-23.66 48.67 -24.32 48.34 -25 48 C-25.4140625 45.71484375 -25.4140625 45.71484375 -25.625 42.9375 C-25.69976562 42.01839844 -25.77453125 41.09929687 -25.8515625 40.15234375 C-25.90054687 39.44207031 -25.94953125 38.73179687 -26 38 C-26.495 38.495 -26.495 38.495 -27 39 C-27.99 38.34 -28.98 37.68 -30 37 C-32.475 39.475 -32.475 39.475 -35 42 C-35 37.75354935 -33.18249194 35.61475228 -31 32 C-30.34 32 -29.68 32 -29 32 C-29.103125 31.236875 -29.20625 30.47375 -29.3125 29.6875 C-29.1578125 28.3571875 -29.1578125 28.3571875 -29 27 C-26.13896577 24.75756777 -24.65923696 24 -21 24 C-21 17.73 -21 11.46 -21 5 C-16.82091936 2.91045968 -16.19589427 2.83447381 -12 4 C-12 3.34 -12 2.68 -12 2 C-10.56656 1.46809459 -9.12804633 0.94984742 -7.6875 0.4375 C-6.88699219 0.14746094 -6.08648437 -0.14257812 -5.26171875 -0.44140625 C-3 -1 -3 -1 0 0 Z " fill="#AF9F8C" transform="translate(305,247)"/>
<path d="M0 0 C0.99 0 1.98 0 3 0 C2.39750753 4.62081399 1.57426935 9.07847075 0.44140625 13.59765625 C0.13783203 14.81130859 -0.16574219 16.02496094 -0.47851562 17.27539062 C-0.79498047 18.52513672 -1.11144531 19.77488281 -1.4375 21.0625 C-1.75009766 22.31611328 -2.06269531 23.56972656 -2.38476562 24.86132812 C-3.75613744 30.31492303 -5.16740064 35.68030875 -7 41 C-7.99 40.34 -8.98 39.68 -10 39 C-10.99 40.32 -11.98 41.64 -13 43 C-12.3908448 37.5239157 -11.05951506 32.64493636 -9.27734375 27.44140625 C-9.01240616 26.65225327 -8.74746857 25.86310028 -8.47450256 25.05003357 C-7.63449458 22.55223852 -6.78614657 20.05737155 -5.9375 17.5625 C-5.36337702 15.86021322 -4.78980368 14.15774095 -4.21679688 12.45507812 C-2.81754566 8.30121323 -1.4108123 4.14995182 0 0 Z " fill="#82786C" transform="translate(402,111)"/>
<path d="M0 0 C3.99129085 4.21721298 5.05974407 7.98969888 6.1875 13.5 C6.35185547 14.24636719 6.51621094 14.99273437 6.68554688 15.76171875 C7.00014221 17.20096059 7.30514197 18.64234352 7.59912109 20.0859375 C7.93341281 21.68206848 8.32849497 23.26531398 8.73828125 24.84375 C9 27 9 27 7 30 C7.99 30.33 8.98 30.66 10 31 C10 32.32 10 33.64 10 35 C8.35 35 6.7 35 5 35 C4.46932659 32.89829344 3.95077143 30.79352402 3.4375 28.6875 C3.14746094 27.51574219 2.85742188 26.34398437 2.55859375 25.13671875 C2 22 2 22 3 19 C2.26145768 16.36186139 2.26145768 16.36186139 1 14 C0.34 13.67 -0.32 13.34 -1 13 C-1.73828125 10.8203125 -1.73828125 10.8203125 -2.3125 8.125 C-2.51488281 7.24070313 -2.71726562 6.35640625 -2.92578125 5.4453125 C-3 3 -3 3 -1.54296875 1.1796875 C-1.03378906 0.79039062 -0.52460937 0.40109375 0 0 Z " fill="#C1B29D" transform="translate(116,177)"/>
<path d="M0 0 C1.98 0 3.96 0 6 0 C5.625 1.9375 5.625 1.9375 5 4 C4.01 4.495 4.01 4.495 3 5 C3.33 5.33 3.66 5.66 4 6 C4.04063832 7.66617115 4.042721 9.33388095 4 11 C-6.37357631 15.40774487 -6.37357631 15.40774487 -12 16 C-12 16.66 -12 17.32 -12 18 C-13.65 17.67 -15.3 17.34 -17 17 C-17.33 16.01 -17.66 15.02 -18 14 C-16.35 13.34 -14.7 12.68 -13 12 C-13 12.99 -13 13.98 -13 15 C-12.34 14.67 -11.68 14.34 -11 14 C-10.26924352 11.6859378 -9.59861742 9.35171131 -9 7 C-6.36 6.34 -3.72 5.68 -1 5 C-0.67 3.35 -0.34 1.7 0 0 Z " fill="#C3B29C" transform="translate(374,201)"/>
<path d="M0 0 C1.85615948 2.78423922 2.37218478 4.09245969 3.015625 7.23828125 C4.77104678 16.15346536 4.77104678 16.15346536 9.64941406 23.47558594 C13.51230068 25.78357442 17.61545987 27.00897381 22 28 C22 28.33 22 28.66 22 29 C18.80097361 29.08886184 16.07322544 28.91058531 13 28 C11.87483915 29.83284443 11.87483915 29.83284443 11 32 C11.33 32.99 11.66 33.98 12 35 C10.51800098 34.55090939 9.03944764 34.09043436 7.5625 33.625 C6.32693359 33.24214844 6.32693359 33.24214844 5.06640625 32.8515625 C3 32 3 32 2 30 C3.32 30 4.64 30 6 30 C5.65213292 28.02463255 5.65213292 28.02463255 5 26 C4.34 25.67 3.68 25.34 3 25 C3.226875 24.030625 3.45375 23.06125 3.6875 22.0625 C4.28465344 17.99694853 3.19453841 15.13596721 1.76953125 11.35546875 C0.54545104 7.60866487 0.31105392 3.91927941 0 0 Z " fill="#C1B299" transform="translate(120,182)"/>
<path d="M0 0 C-0.56229699 3.75983661 -2.09311418 5.41683574 -4.8125 8 C-5.49957031 8.66 -6.18664062 9.32 -6.89453125 10 C-8.32517933 11.35898296 -9.76570063 12.70763162 -11.21484375 14.046875 C-13.53342142 16.58361206 -13.69430737 18.63738104 -14 22 C-14.33 22 -14.66 22 -15 22 C-15 18.04 -15 14.08 -15 10 C-16.98 10.66 -18.96 11.32 -21 12 C-17.87475968 8.59900318 -14.41443689 6.14659401 -10.5 3.75 C-9.93152344 3.38648438 -9.36304688 3.02296875 -8.77734375 2.6484375 C-5.47222217 0.60861769 -4.00087647 0 0 0 Z " fill="#A39789" transform="translate(356,177)"/>
<path d="M0 0 C1.15224028 0.92961422 2.29659176 1.8690125 3.4375 2.8125 C4.07558594 3.33457031 4.71367187 3.85664063 5.37109375 4.39453125 C7 6 7 6 8 9 C9.32972012 9.67384466 10.66391381 10.3388677 12 11 C13.80049414 12.59043649 15.54755537 14.24252223 17.25 15.9375 C18.58804688 17.25041016 18.58804688 17.25041016 19.953125 18.58984375 C22 21 22 21 22 24 C20.35 23.67 18.7 23.34 17 23 C17 22.34 17 21.68 17 21 C16.29488281 20.74476563 15.58976563 20.48953125 14.86328125 20.2265625 C11.7303652 18.88449478 9.04285575 17.23270133 6.1875 15.375 C5.21167969 14.74335938 4.23585937 14.11171875 3.23046875 13.4609375 C2.49441406 12.97882813 1.75835937 12.49671875 1 12 C3 11 3 11 5 11 C5.66 10.67 6.32 10.34 7 10 C6.4946875 9.44570313 5.989375 8.89140625 5.46875 8.3203125 C4.8190625 7.59585937 4.169375 6.87140625 3.5 6.125 C2.8503125 5.40570313 2.200625 4.68640625 1.53125 3.9453125 C0 2 0 2 0 0 Z " fill="#7D7464" transform="translate(223,364)"/>
<path d="M0 0 C0.103125 0.598125 0.20625 1.19625 0.3125 1.8125 C1.10636936 4.33844795 1.95572409 5.34885407 4 7 C4.99 7.33 5.98 7.66 7 8 C9.6875 10.3125 9.6875 10.3125 12 13 C12 14.32 12 15.64 12 17 C12.66 17 13.32 17 14 17 C13.67 18.32 13.34 19.64 13 21 C12.34 19.68 11.68 18.36 11 17 C10.01 17.33 9.02 17.66 8 18 C7.01 16.68 6.02 15.36 5 14 C2.36 14.33 -0.28 14.66 -3 15 C-3.625 13.125 -3.625 13.125 -4 11 C-3.34 10.34 -2.68 9.68 -2 9 C-1.38932856 7.14255793 -1.38932856 7.14255793 -1 5 C-0.814375 4.0925 -0.62875 3.185 -0.4375 2.25 C-0.2209375 1.13625 -0.2209375 1.13625 0 0 Z M10 20 C10.99 20.495 10.99 20.495 12 21 C11.67 21.99 11.34 22.98 11 24 C10.67 22.68 10.34 21.36 10 20 Z " fill="#C3B39B" transform="translate(204,345)"/>
<path d="M0 0 C0.99 0.495 0.99 0.495 2 1 C2.60265805 3.14534731 3.10952625 5.3181369 3.5625 7.5 C4.10668442 11.5695459 4.10668442 11.5695459 6 15 C6 12.03 6 9.06 6 6 C7.32 7.32 8.64 8.64 10 10 C11.65 6.7 13.3 3.4 15 0 C15.99 0 16.98 0 18 0 C17 3 17 3 15.60546875 4.765625 C13.56922088 7.59952715 12.52180321 10.48161296 11.3125 13.75 C10.87550781 14.92046875 10.43851563 16.0909375 9.98828125 17.296875 C9.66214844 18.18890625 9.33601563 19.0809375 9 20 C8.34 20 7.68 20 7 20 C7 22.64 7 25.28 7 28 C4.81148632 23.85193556 3.62582339 19.62650977 2.375 15.125 C2.14554687 14.33480469 1.91609375 13.54460937 1.6796875 12.73046875 C0.4611511 8.37129985 -0.27940344 4.57339322 0 0 Z " fill="#71665E" transform="translate(103,144)"/>
<path d="M0 0 C0 0.99 0 1.98 0 3 C1.43750191 4.68798827 1.43750191 4.68798827 3 6 C2.360625 6.28875 1.72125 6.5775 1.0625 6.875 C-1.15206079 7.82823451 -1.15206079 7.82823451 -2 10 C-3.32 10 -4.64 10 -6 10 C-6 9.34 -6 8.68 -6 8 C-6.99 7.67 -7.98 7.34 -9 7 C-9.99 6.67 -10.98 6.34 -12 6 C-12.99 6 -13.98 6 -15 6 C-15.33 5.01 -15.66 4.02 -16 3 C-5.62642369 -1.77676538 -5.62642369 -1.77676538 0 0 Z " fill="#BFB299" transform="translate(334,224)"/>
<path d="M0 0 C0.33 0 0.66 0 1 0 C1.33 1.98 1.66 3.96 2 6 C1.4225 6.226875 0.845 6.45375 0.25 6.6875 C-3.56083774 8.91048868 -5.61929664 11.85788992 -7 16 C-6.34 16.33 -5.68 16.66 -5 17 C-5 15.35 -5 13.7 -5 12 C-4.236875 11.731875 -3.47375 11.46375 -2.6875 11.1875 C-0.12619116 10.05575888 1.19692938 9.08776599 3 7 C5.42857143 13.28571429 5.42857143 13.28571429 4 17 C3.34 15.02 2.68 13.04 2 11 C0.75283203 12.40765625 0.75283203 12.40765625 -0.51953125 13.84375 C-1.61675594 15.06288854 -2.7144359 16.28161745 -3.8125 17.5 C-4.35970703 18.12003906 -4.90691406 18.74007813 -5.47070312 19.37890625 C-6.00244141 19.96542969 -6.53417969 20.55195313 -7.08203125 21.15625 C-7.56905518 21.70087891 -8.0560791 22.24550781 -8.55786133 22.80664062 C-10 24 -10 24 -13 24 C-12.731875 23.505 -12.46375 23.01 -12.1875 22.5 C-10.8782623 19.88569245 -10.8782623 19.88569245 -9.875 16.5 C-7.67189273 10.44145501 -3.82398314 5.14437194 0 0 Z " fill="#867A6E" transform="translate(268,289)"/>
<path d="M0 0 C1.48831242 0.00667405 2.97660807 0.01863442 4.46484375 0.03515625 C5.22345703 0.03966797 5.98207031 0.04417969 6.76367188 0.04882812 C8.64326246 0.06064945 10.52281274 0.07858547 12.40234375 0.09765625 C12.40234375 1.08765625 12.40234375 2.07765625 12.40234375 3.09765625 C12.73234375 3.75765625 13.06234375 4.41765625 13.40234375 5.09765625 C10.18281363 7.01404323 8.13007081 8.1273594 4.33984375 7.97265625 C1.25495856 7.05375428 -1.01429962 6.01672118 -3.59765625 4.09765625 C-3.92765625 3.10765625 -4.25765625 2.11765625 -4.59765625 1.09765625 C-3.59765625 0.09765625 -3.59765625 0.09765625 0 0 Z " fill="#C3B49D" transform="translate(157.59765625,238.90234375)"/>
<path d="M0 0 C0.87527344 0.17144531 1.75054687 0.34289062 2.65234375 0.51953125 C5.0625 1.1875 5.0625 1.1875 8.0625 3.1875 C6.0825 4.1775 6.0825 4.1775 4.0625 5.1875 C5.64951251 8.36152502 7.81023145 8.913756 11.0625 10.1875 C13.89246836 10.394994 16.61934328 10.16293102 19.4375 9.875 C20.17355469 9.81376953 20.90960938 9.75253906 21.66796875 9.68945312 C23.467513 9.53754355 25.26526611 9.36466201 27.0625 9.1875 C23.94517271 11.26571819 22.70145363 11.72295273 19.0625 12.1875 C17.99322266 12.33832031 17.99322266 12.33832031 16.90234375 12.4921875 C9.03280375 13.11576436 4.14236099 9.91845293 -1.9375 5.1875 C-3.7641418 3.59017687 -5.33318865 2.01309567 -6.9375 0.1875 C-4.26758107 -1.14745946 -2.8991317 -0.59174641 0 0 Z " fill="#6F655B" transform="translate(149.9375,235.8125)"/>
<path d="M0 0 C0.66 0.33 1.32 0.66 2 1 C1.01 2.98 0.02 4.96 -1 7 C0.32 7.33 1.64 7.66 3 8 C-11.7 18 -11.7 18 -15 18 C-15 17.01 -15 16.02 -15 15 C-14.34 15 -13.68 15 -13 15 C-12.34 13.68 -11.68 12.36 -11 11 C-10.34 11 -9.68 11 -9 11 C-9 10.34 -9 9.68 -9 9 C-8.34 9 -7.68 9 -7 9 C-6.773125 8.443125 -6.54625 7.88625 -6.3125 7.3125 C-4.64103234 4.36753316 -2.44723648 2.31843456 0 0 Z " fill="#A09787" transform="translate(269,370)"/>
<path d="M0 0 C-4.09671378 4.49316995 -8.71434062 7.97813973 -14 11 C-14.66 11 -15.32 11 -16 11 C-16 10.34 -16 9.68 -16 9 C-15.34 9 -14.68 9 -14 9 C-14.33 8.01 -14.66 7.02 -15 6 C-14.67 5.34 -14.34 4.68 -14 4 C-16.31 4 -18.62 4 -21 4 C-21 3.67 -21 3.34 -21 3 C-20.1646875 2.81824219 -20.1646875 2.81824219 -19.3125 2.6328125 C-18.549375 2.46523437 -17.78625 2.29765625 -17 2.125 C-15.77216797 1.85623047 -15.77216797 1.85623047 -14.51953125 1.58203125 C-12.22118208 1.05109478 -9.96035346 0.44170802 -7.6875 -0.1875 C-4.24333737 -0.94638329 -3.16991554 -0.98666245 0 0 Z " fill="#A49283" transform="translate(356,236)"/>
<path d="M0 0 C0.33 0 0.66 0 1 0 C1 4.29 1 8.58 1 13 C1.66 13 2.32 13 3 13 C3.66 11.02 4.32 9.04 5 7 C5.33 7 5.66 7 6 7 C6.2248832 12.4042243 5.4886411 16.81275243 4 21.9375 C3.80921875 22.62134766 3.6184375 23.30519531 3.421875 24.00976562 C2.95595063 25.67544526 2.47911589 27.33806675 2 29 C1.67 29 1.34 29 1 29 C0.91840426 24.83861737 1.01751476 21.0527516 2 17 C1.34 17 0.68 17 0 17 C-0.33 16.34 -0.66 15.68 -1 15 C-2.98 19.455 -2.98 19.455 -5 24 C-6.36605568 19.90183295 -4.95552417 17.0528772 -3.625 13.125 C-1.47345737 6.65395064 -1.47345737 6.65395064 0 0 Z " fill="#73655A" transform="translate(383,164)"/>
<path d="M0 0 C0.99 0.33 1.98 0.66 3 1 C2.67 2.98 2.34 4.96 2 7 C3.32 6.34 4.64 5.68 6 5 C7.5 6.375 7.5 6.375 9 8 C9 8.66 9 9.32 9 10 C5.73454239 11.88391785 2.71888239 12.49287967 -1 13 C-2.625 10.25 -2.625 10.25 -4 7 C-3.28739821 4.80281116 -2.61450567 3.61450567 -1 2 C-0.67 1.34 -0.34 0.68 0 0 Z " fill="#BBAA91" transform="translate(224,284)"/>
<path d="M0 0 C2.31 0.66 4.62 1.32 7 2 C6.34 3.32 5.68 4.64 5 6 C4.01 6 3.02 6 2 6 C2 6.66 2 7.32 2 8 C2.99 8.33 3.98 8.66 5 9 C4.34 9.66 3.68 10.32 3 11 C-1.51013824 10.71211884 -2.70514769 10.29485231 -6 7 C-4.02 4.69 -2.04 2.38 0 0 Z " fill="#C3B49D" transform="translate(196,235)"/>
<path d="M0 0 C1.8984375 0.21484375 1.8984375 0.21484375 4 1 C4.9765625 3.00390625 4.9765625 3.00390625 5.625 5.5625 C5.85832031 6.46484375 6.09164063 7.3671875 6.33203125 8.296875 C6.55246094 9.18890625 6.77289063 10.0809375 7 11 C7.23074219 11.74765625 7.46148437 12.4953125 7.69921875 13.265625 C8.69511313 16.58950179 9.10769482 18.63076062 8.125 22 C7.75375 22.66 7.3825 23.32 7 24 C6.67 24 6.34 24 6 24 C6 22.35 6 20.7 6 19 C5.34 19 4.68 19 4 19 C3.3306277 16.20895657 2.66438908 13.41722977 2 10.625 C1.71382813 9.43390625 1.71382813 9.43390625 1.421875 8.21875 C1.24140625 7.45820313 1.0609375 6.69765625 0.875 5.9140625 C0.70742188 5.2123291 0.53984375 4.5105957 0.3671875 3.78759766 C0 2 0 2 0 0 Z " fill="#B1A697" transform="translate(378,145)"/>
<path d="M0 0 C0.721875 0.144375 1.44375 0.28875 2.1875 0.4375 C3.5796875 0.7159375 3.5796875 0.7159375 5 1 C6.66666667 1.33333333 8.33333333 1.66666667 10 2 C9.67 3.98 9.34 5.96 9 8 C4.94568308 9.15837626 2.78187881 8.83691257 -1 7 C-1 6.34 -1 5.68 -1 5 C-1.99 4.67 -2.98 4.34 -4 4 C-3.01 3.34 -2.02 2.68 -1 2 C-0.67 1.34 -0.34 0.68 0 0 Z " fill="#C4B29D" transform="translate(132,209)"/>
<path d="M0 0 C-1.80597656 0.65742188 -1.80597656 0.65742188 -3.6484375 1.328125 C-12.46552875 4.44188106 -12.46552875 4.44188106 -18.5390625 10.95703125 C-18.99648973 14.03885031 -19.09361566 16.88940703 -19 20 C-19.17672394 21.42095597 -19.37893153 22.83939817 -19.625 24.25 C-19.74875 25.1575 -19.8725 26.065 -20 27 C-20.33 27 -20.66 27 -21 27 C-21 19.74 -21 12.48 -21 5 C-16.82091936 2.91045968 -16.19589427 2.83447381 -12 4 C-12 3.34 -12 2.68 -12 2 C-10.56656 1.46809459 -9.12804633 0.94984742 -7.6875 0.4375 C-6.48673828 0.00244141 -6.48673828 0.00244141 -5.26171875 -0.44140625 C-3 -1 -3 -1 0 0 Z " fill="#897669" transform="translate(305,247)"/>
<path d="M0 0 C0.33 0 0.66 0 1 0 C2.32915021 7.97490128 2.08801359 15.94186719 2 24 C0.68 22.68 -0.64 21.36 -2 20 C-1.67 19.01 -1.34 18.02 -1 17 C-1.33 16.67 -1.66 16.34 -2 16 C-2.33 16.66 -2.66 17.32 -3 18 C-3.99 18 -4.98 18 -6 18 C-5.1875 14.5625 -5.1875 14.5625 -4 11 C-3.01 10.67 -2.02 10.34 -1 10 C-0.67 6.7 -0.34 3.4 0 0 Z " fill="#C4B59F" transform="translate(163,190)"/>
<path d="M0 0 C0.33 0 0.66 0 1 0 C0.979375 1.2375 0.95875 2.475 0.9375 3.75 C0.93233319 6.6640825 1.06984442 9.20953327 2 12 C1.34 12 0.68 12 0 12 C-0.33 12.66 -0.66 13.32 -1 14 C-1.763125 13.67 -2.52625 13.34 -3.3125 13 C-5.99069135 11.82563314 -5.99069135 11.82563314 -9 12 C-7.56030948 6.96108318 -4.98099785 5.13397703 -1 2 C-0.67 1.34 -0.34 0.68 0 0 Z " fill="#C3B49E" transform="translate(288,353)"/>
<path d="M0 0 C0.33 0 0.66 0 1 0 C1.21908649 6.02487844 0.49398047 11.17549506 -1 17 C-1.19078125 17.77472656 -1.3815625 18.54945313 -1.578125 19.34765625 C-2.04384543 21.23382399 -2.52074817 23.11722494 -3 25 C-3.33 25 -3.66 25 -4 25 C-4 22.03 -4 19.06 -4 16 C-4.66 16 -5.32 16 -6 16 C-5.37183502 12.05050296 -4.1354471 8.80107972 -2.4375 5.1875 C-1.98246094 4.21167969 -1.52742188 3.23585937 -1.05859375 2.23046875 C-0.70925781 1.49441406 -0.35992187 0.75835937 0 0 Z " fill="#695D53" transform="translate(119,145)"/>
<path d="M0 0 C3.9060925 3.62708589 7.77163983 7.37385809 8.25 12.875 C8.1675 13.57625 8.085 14.2775 8 15 C4.93617261 14.67567593 4.01029035 14.01098513 1.859375 11.71484375 C1.16328125 10.79832031 0.4671875 9.88179688 -0.25 8.9375 C-0.95640625 8.01839844 -1.6628125 7.09929687 -2.390625 6.15234375 C-2.92171875 5.44207031 -3.4528125 4.73179687 -4 4 C-1 4 -1 4 2 6 C1.34 4.02 0.68 2.04 0 0 Z " fill="#8C8078" transform="translate(237,300)"/>
<path d="M0 0 C1.23556641 0.01740234 1.23556641 0.01740234 2.49609375 0.03515625 C3.32238281 0.04417969 4.14867187 0.05320312 5 0.0625 C5.63808594 0.07410156 6.27617187 0.08570313 6.93359375 0.09765625 C7.28192519 4.97429634 6.35045087 7.8681563 3.93359375 12.09765625 C2.6002728 9.43101435 3.26257342 7.93085322 3.93359375 5.09765625 C3.27359375 5.09765625 2.61359375 5.09765625 1.93359375 5.09765625 C1.60359375 5.75765625 1.27359375 6.41765625 0.93359375 7.09765625 C-0.05640625 7.42765625 -1.04640625 7.75765625 -2.06640625 8.09765625 C-2.44703846 5.77157055 -2.7791057 3.43710361 -3.06640625 1.09765625 C-2.06640625 0.09765625 -2.06640625 0.09765625 0 0 Z " fill="#C2B39D" transform="translate(213.06640625,319.90234375)"/>
<path d="M0 0 C3.07692057 2.76922851 4.77800007 5.02850024 6 9 C6 9.99 6 10.98 6 12 C-1.71428571 8.28571429 -1.71428571 8.28571429 -4 6 C-4.66 6.99 -5.32 7.98 -6 9 C-6 7.35 -6 5.7 -6 4 C-2.86650268 2.95550089 -2.01031744 3.06576355 1 4 C0.67 2.68 0.34 1.36 0 0 Z " fill="#AD9F8F" transform="translate(233,294)"/>
<path d="M0 0 C2.59436983 0.99370273 3.7671861 1.55706526 5.08203125 4.05859375 C5.32308594 4.84363281 5.56414062 5.62867187 5.8125 6.4375 C6.06644531 7.21996094 6.32039063 8.00242187 6.58203125 8.80859375 C7 11 7 11 6 14 C5.67 13.34 5.34 12.68 5 12 C5 14.97 5 17.94 5 21 C4.67 21 4.34 21 4 21 C2.30785021 14.01855181 0.70156407 7.15595346 0 0 Z " fill="#635D58" transform="translate(94,111)"/>
<path d="M0 0 C3.50507615 1.94726453 6.54432054 3.78872686 9 7 C8.75 9.75 8.75 9.75 8 12 C5.36 10.68 2.72 9.36 0 8 C0 5.36 0 2.72 0 0 Z " fill="#C1B39C" transform="translate(221,365)"/>
<path d="M0 0 C2.44140066 2.54312569 2.99243527 3.93948214 3.4375 7.5 C3 11 3 11 1.125 13.4375 C-1 15 -1 15 -3 15 C-3.28875 15.94875 -3.5775 16.8975 -3.875 17.875 C-5 21 -5 21 -7 23 C-8.98356483 23.71408334 -10.98315437 24.38617742 -13 25 C-11.68058378 21.43757619 -9.51483915 19.62632329 -6.59375 17.28515625 C-1.96809876 13.59923195 -1.96809876 13.59923195 0.875 8.5625 C1.02076055 5.57440877 0.61157861 2.9219867 0 0 Z " fill="#796B5D" transform="translate(284,345)"/>
<path d="M0 0 C3.3 0.33 6.6 0.66 10 1 C10 2.65 10 4.3 10 6 C9.34 6 8.68 6 8 6 C8 6.66 8 7.32 8 8 C5.125 8.125 5.125 8.125 2 8 C1.34 7.34 0.68 6.68 0 6 C0.66 5.67 1.32 5.34 2 5 C1.34 3.35 0.68 1.7 0 0 Z " fill="#C4B29D" transform="translate(332,239)"/>
<path d="M0 0 C0.66 0 1.32 0 2 0 C5.28874656 6.3327492 6.70245971 11.87391001 7 19 C6.34 19.33 5.68 19.66 5 20 C0 5.3 0 5.3 0 0 Z " fill="#BDB1A0" transform="translate(103,140)"/>
<path d="M0 0 C2.00107527 8.25236826 1.98970409 15.58751519 1 24 C0.67 24 0.34 24 0 24 C-0.19916016 22.31970703 -0.19916016 22.31970703 -0.40234375 20.60546875 C-0.58056569 19.13279271 -0.75896011 17.66013753 -0.9375 16.1875 C-1.02451172 15.44951172 -1.11152344 14.71152344 -1.20117188 13.95117188 C-1.58216546 10.83266879 -2.00369374 7.98891878 -3 5 C-6.50294871 3.28432339 -6.50294871 3.28432339 -10 2 C-8.66666667 1.66666667 -7.33333333 1.33333333 -6 1 C-5.29875 0.814375 -4.5975 0.62875 -3.875 0.4375 C-2 0 -2 0 0 0 Z " fill="#7F7167" transform="translate(214,250)"/>
<path d="M0 0 C0.99 0.33 1.98 0.66 3 1 C-3.71583936 4.40203833 -10.44005307 7.78946725 -17.25 11 C-18.55710937 11.61875 -18.55710937 11.61875 -19.890625 12.25 C-20.58671875 12.4975 -21.2828125 12.745 -22 13 C-22.66 12.67 -23.32 12.34 -24 12 C-23.34 11.34 -22.68 10.68 -22 10 C-20.68 10 -19.36 10 -18 10 C-18.20625 9.38125 -18.4125 8.7625 -18.625 8.125 C-18.74875 7.42375 -18.8725 6.7225 -19 6 C-18.34 5.34 -17.68 4.68 -17 4 C-16.67 4.66 -16.34 5.32 -16 6 C-13.97536745 6.65213292 -13.97536745 6.65213292 -12 7 C-12 6.34 -12 5.68 -12 5 C-10.82630859 4.58427734 -10.82630859 4.58427734 -9.62890625 4.16015625 C-8.61699219 3.79792969 -7.60507812 3.43570313 -6.5625 3.0625 C-5.04849609 2.52302734 -5.04849609 2.52302734 -3.50390625 1.97265625 C-1.09686255 1.23122361 -1.09686255 1.23122361 0 0 Z " fill="#78695B" transform="translate(374,212)"/>
<path d="M0 0 C4 5 4 5 8 10 C7.67 10.66 7.34 11.32 7 12 C6.34 12 5.68 12 5 12 C4.34 12.66 3.68 13.32 3 14 C1.66667905 11.3333581 2.32897967 9.83319697 3 7 C2.34 6.67 1.68 6.34 1 6 C0.375 2.9375 0.375 2.9375 0 0 Z M-7 6 C-5.02 6.66 -3.04 7.32 -1 8 C-1 7.34 -1 6.68 -1 6 C-0.34 6 0.32 6 1 6 C0.67 7.65 0.34 9.3 0 11 C-0.66 11 -1.32 11 -2 11 C-2.66 11.66 -3.32 12.32 -4 13 C-4.309375 12.21625 -4.61875 11.4325 -4.9375 10.625 C-5.92875038 8.07669872 -5.92875038 8.07669872 -7 6 Z " fill="#8D816F" transform="translate(223,278)"/>
<path d="M0 0 C-0.33 2.31 -0.66 4.62 -1 7 C-1.99 7.33 -2.98 7.66 -4 8 C-4.33 7.01 -4.66 6.02 -5 5 C-9.34464536 5.60825035 -13.67551867 6.26167392 -18 7 C-15.13942468 4.68902596 -12.41372871 3.17070609 -9 1.8125 C-8.154375 1.46832031 -7.30875 1.12414062 -6.4375 0.76953125 C-4 0 -4 0 0 0 Z " fill="#958774" transform="translate(365,208)"/>
<path d="M0 0 C1.77171324 2.65756986 2.54942575 4.39137682 3.4375 7.37890625 C3.69273438 8.21744141 3.94796875 9.05597656 4.2109375 9.91992188 C4.73805017 11.68522743 5.26408769 13.45085437 5.7890625 15.21679688 C6.04429688 16.05404297 6.29953125 16.89128906 6.5625 17.75390625 C6.79066406 18.52033447 7.01882812 19.2867627 7.25390625 20.07641602 C7.92731691 22.19635133 7.92731691 22.19635133 10 24 C8.68 24 7.36 24 6 24 C5.67 24.66 5.34 25.32 5 26 C4.34 25.67 3.68 25.34 3 25 C3.226875 24.030625 3.45375 23.06125 3.6875 22.0625 C4.28465344 17.99694853 3.19453841 15.13596721 1.76953125 11.35546875 C0.54545104 7.60866487 0.31105392 3.91927941 0 0 Z " fill="#887B6A" transform="translate(120,182)"/>
<path d="M0 0 C0.33 0.99 0.66 1.98 1 3 C1.66 3 2.32 3 3 3 C2.67 5.97 2.34 8.94 2 12 C0.35 11.67 -1.3 11.34 -3 11 C-2.88590407 9.54077307 -2.75834456 8.08259402 -2.625 6.625 C-2.55539062 5.81289062 -2.48578125 5.00078125 -2.4140625 4.1640625 C-2 2 -2 2 0 0 Z " fill="#C1B29F" transform="translate(382,178)"/>
<path d="M0 0 C0.99 0.33 1.98 0.66 3 1 C5.26415094 6.20754717 5.26415094 6.20754717 4 10 C4.24132128 12.0720344 4.56239629 14.13546206 4.9375 16.1875 C5.13214844 17.27417969 5.32679687 18.36085937 5.52734375 19.48046875 C5.68332031 20.31191406 5.83929688 21.14335937 6 22 C3.13514707 18.71785756 2.23628281 15.79039489 1.3125 11.5625 C1.06113281 10.45003906 0.80976562 9.33757812 0.55078125 8.19140625 C0.06420252 5.37201036 -0.11186953 2.85000947 0 0 Z " fill="#8C7D6D" transform="translate(115,190)"/>
<path d="M0 0 C0.99 0 1.98 0 3 0 C2 3 2 3 0.57421875 4.859375 C-1.17322132 7.2355466 -2.13785585 9.49920843 -3.1875 12.25 C-3.53167969 13.14203125 -3.87585938 14.0340625 -4.23046875 14.953125 C-4.48441406 15.62859375 -4.73835938 16.3040625 -5 17 C-5.66 17 -6.32 17 -7 17 C-9.42857143 9.57142857 -9.42857143 9.57142857 -8 6 C-7.34 7.32 -6.68 8.64 -6 10 C-4.52774699 7.79162049 -3.17899562 5.6162256 -1.875 3.3125 C-1.25625 2.219375 -0.6375 1.12625 0 0 Z " fill="#5B4E40" transform="translate(118,144)"/>
<path d="M0 0 C-0.875 7.75 -0.875 7.75 -2 10 C-2.35169068 11.32860925 -2.68770276 12.66158328 -3 14 C-5.02350324 10.96474514 -5.32124018 9.80573798 -5.625 6.3125 C-5.69976562 5.50425781 -5.77453125 4.69601563 -5.8515625 3.86328125 C-5.90054688 3.24839844 -5.94953125 2.63351563 -6 2 C-2.25 0 -2.25 0 0 0 Z " fill="#C6B6A3" transform="translate(115,161)"/>
<path d="M0 0 C0.87527344 0.17144531 1.75054687 0.34289062 2.65234375 0.51953125 C5.0625 1.1875 5.0625 1.1875 8.0625 3.1875 C5.0625 4.6875 5.0625 4.6875 2.0625 6.1875 C0.15234375 5.48046875 0.15234375 5.48046875 -2 4.375 C-2.71285156 4.01792969 -3.42570313 3.66085938 -4.16015625 3.29296875 C-5.9375 2.1875 -5.9375 2.1875 -6.9375 0.1875 C-4.26758107 -1.14745946 -2.8991317 -0.59174641 0 0 Z " fill="#8E7B72" transform="translate(149.9375,235.8125)"/>
<path d="M0 0 C-0.85714286 8.57142857 -0.85714286 8.57142857 -3 12 C-3.99 11.67 -4.98 11.34 -6 11 C-5.125 3.25 -5.125 3.25 -4 1 C-1 0 -1 0 0 0 Z " fill="#C1B29F" transform="translate(389,166)"/>
<path d="M0 0 C0.66 0.33 1.32 0.66 2 1 C1.01 2.98 0.02 4.96 -1 7 C0.32 7.33 1.64 7.66 3 8 C1.02 9.32 -0.96 10.64 -3 12 C-3.66 11.67 -4.32 11.34 -5 11 C-5 10.34 -5 9.68 -5 9 C-5.66 9 -6.32 9 -7 9 C-5.44499019 5.18315774 -2.96404505 2.80804268 0 0 Z " fill="#867D70" transform="translate(269,370)"/>
<path d="M0 0 C4.08077225 5.01990888 5.40337324 10.54602821 5 17 C4.01 17 3.02 17 2 17 C0.47893366 13.95786733 0.62570662 10.71952428 0.4375 7.375 C0.39431641 6.66859375 0.35113281 5.9621875 0.30664062 5.234375 C0.20055249 3.48981463 0.09977111 1.74493303 0 0 Z " fill="#867F73" transform="translate(98,121)"/>
<path d="M0 0 C7.03839122 2.6142596 7.03839122 2.6142596 10 5 C10.8125 8.6875 10.8125 8.6875 11 12 C10.54109375 11.60167969 10.0821875 11.20335937 9.609375 10.79296875 C8.68898437 9.99826172 8.68898437 9.99826172 7.75 9.1875 C7.11449219 8.63835937 6.47898438 8.08921875 5.82421875 7.5234375 C3.94643248 5.90875413 3.94643248 5.90875413 1.5625 4.3125 C1.046875 3.879375 0.53125 3.44625 0 3 C0 2.01 0 1.02 0 0 Z " fill="#C4B3A5" transform="translate(148,181)"/>
<path d="M0 0 C0.99 0 1.98 0 3 0 C2.40380045 4.86896303 1.43023178 9.32790951 0 14 C-0.99 13.34 -1.98 12.68 -3 12 C-2.68950274 10.56206608 -2.3765224 9.1246682 -2.0625 7.6875 C-1.88847656 6.88699219 -1.71445312 6.08648437 -1.53515625 5.26171875 C-1 3 -1 3 0 0 Z " fill="#67615C" transform="translate(402,111)"/>
<path d="M0 0 C1.16210276 4.14638266 1.20807155 7.69985464 1 12 C0.34 12.66 -0.32 13.32 -1 14 C-1.33 14.99 -1.66 15.98 -2 17 C-1.67 17.66 -1.34 18.32 -1 19 C-1.99 18.67 -2.98 18.34 -4 18 C-3.61020794 11.44074057 -2.57886807 6.05473373 0 0 Z " fill="#8A7C6F" transform="translate(203,342)"/>
<path d="M0 0 C0.66 0.33 1.32 0.66 2 1 C1.505 1.61875 1.01 2.2375 0.5 2.875 C-1.19222773 4.83880904 -1.19222773 4.83880904 -1 7 C-0.01 7 0.98 7 2 7 C1 10 1 10 -1 11 C-1.65772428 14.02934491 -1.65772428 14.02934491 -2 17 C-2.33 17 -2.66 17 -3 17 C-3 13.04 -3 9.08 -3 5 C-4.98 5.66 -6.96 6.32 -9 7 C-6.25604436 4.05278838 -3.61662784 1.80831392 0 0 Z " fill="#7F7064" transform="translate(344,182)"/>
<path d="M0 0 C4.55193954 3.79777205 9.00343222 7.61352317 13 12 C13 12.99 13 13.98 13 15 C11.35 14.67 9.7 14.34 8 14 C8 13.34 8 12.68 8 12 C7.34 11.67 6.68 11.34 6 11 C6.66 11 7.32 11 8 11 C7.50628906 10.45730469 7.01257813 9.91460937 6.50390625 9.35546875 C5.86324219 8.64003906 5.22257813 7.92460937 4.5625 7.1875 C3.92441406 6.47980469 3.28632813 5.77210938 2.62890625 5.04296875 C1 3 1 3 0 0 Z " fill="#5D534B" transform="translate(232,373)"/>
<path d="M0 0 C-2.80804268 2.96404505 -5.18315774 5.44499019 -9 7 C-8.67 5.35 -8.34 3.7 -8 2 C-9.32 1.67 -10.64 1.34 -12 1 C-3.96428571 -1.27678571 -3.96428571 -1.27678571 0 0 Z " fill="#96877B" transform="translate(356,236)"/>
<path d="M0 0 C0.99 0 1.98 0 3 0 C2.34 1.98 1.68 3.96 1 6 C0.01 6 -0.98 6 -2 6 C-3.33981486 6.3062434 -4.67511887 6.63451555 -6 7 C-6.99 5.35 -7.98 3.7 -9 2 C-6.36 2 -3.72 2 -1 2 C-0.67 1.34 -0.34 0.68 0 0 Z " fill="#C5B5A0" transform="translate(164,222)"/>
<path d="M0 0 C0.99 0.33 1.98 0.66 3 1 C3.8125 2.875 3.8125 2.875 4 5 C3.01 6.485 3.01 6.485 2 8 C-0.97 7.505 -0.97 7.505 -4 7 C-2.79618552 4.50638429 -1.54571278 2.31856917 0 0 Z " fill="#C4B49C" transform="translate(144,213)"/>
<path d="M0 0 C3 2 3 2 3.8125 5 C3.874375 5.99 3.93625 6.98 4 8 C3.34 8.66 2.68 9.32 2 10 C2 9.01 2 8.02 2 7 C1.34 7 0.68 7 0 7 C-2 7 -4 7 -6 7 C-6 6.01 -6 5.02 -6 4 C-5.38125 3.896875 -4.7625 3.79375 -4.125 3.6875 C-1.63473516 3.12474627 -1.63473516 3.12474627 0 0 Z " fill="#C6B5A0" transform="translate(288,327)"/>
<path d="M0 0 C1.79341438 4.16673521 0.01173384 7.74663341 -1.4375 11.75 C-1.68048828 12.44738281 -1.92347656 13.14476562 -2.17382812 13.86328125 C-2.77310248 15.57885098 -3.38529885 17.28989715 -4 19 C-4.33 19 -4.66 19 -5 19 C-5 17.35 -5 15.7 -5 14 C-5.66 13.67 -6.32 13.34 -7 13 C-6.01 12.34 -5.02 11.68 -4 11 C-3.02260454 8.62267515 -3.02260454 8.62267515 -2.375 5.9375 C-1.07827789 1.07827789 -1.07827789 1.07827789 0 0 Z " fill="#826D62" transform="translate(383,193)"/>
<path d="M0 0 C0.99 0 1.98 0 3 0 C2.25 2.375 2.25 2.375 1 5 C-0.32520503 5.68268138 -1.65812182 6.3507041 -3 7 C-3.80528889 9.05000871 -3.80528889 9.05000871 -4 11 C-4.99 10.67 -5.98 10.34 -7 10 C-6.01 8.02 -5.02 6.04 -4 4 C-3.34 4 -2.68 4 -2 4 C-1.34 2.68 -0.68 1.36 0 0 Z " fill="#C3B0A1" transform="translate(267,295)"/>
<path d="M0 0 C0.99 0 1.98 0 3 0 C3 0.66 3 1.32 3 2 C3.5775 2.0825 4.155 2.165 4.75 2.25 C7.6159304 3.20531013 8.9990764 4.78469173 11 7 C10.31550781 6.67257813 9.63101563 6.34515625 8.92578125 6.0078125 C5.51087941 4.83151788 2.78968716 4.80222854 -0.8125 4.875 C-1.97394531 4.89304688 -3.13539063 4.91109375 -4.33203125 4.9296875 C-5.65267578 4.96449219 -5.65267578 4.96449219 -7 5 C-4.77810176 2.77810176 -2.91517292 2.07401108 0 1 C0 0.67 0 0.34 0 0 Z " fill="#8D7F72" transform="translate(184,240)"/>
<path d="M0 0 C0.99 0.33 1.98 0.66 3 1 C2.67 2.65 2.34 4.3 2 6 C0.35 6.33 -1.3 6.66 -3 7 C-3 7.99 -3 8.98 -3 10 C-3.99 9.67 -4.98 9.34 -6 9 C-4.3619751 5.48994665 -2.96865509 2.54456151 0 0 Z " fill="#C2B39F" transform="translate(273,368)"/>
<path d="M0 0 C1.65 0.33 3.3 0.66 5 1 C3.35 2.65 1.7 4.3 0 6 C-1 3 -1 3 0 0 Z M-10 6 C-7.03 6 -4.06 6 -1 6 C-1.33 6.99 -1.66 7.98 -2 9 C-1.01 9.33 -0.02 9.66 1 10 C0.01 10.495 0.01 10.495 -1 11 C-3.1640625 10.22265625 -3.1640625 10.22265625 -5.625 9.0625 C-6.44226563 8.68222656 -7.25953125 8.30195313 -8.1015625 7.91015625 C-8.72804687 7.60980469 -9.35453125 7.30945313 -10 7 C-10 6.67 -10 6.34 -10 6 Z " fill="#938374" transform="translate(142,211)"/>
<path d="M0 0 C4.97209562 1.76429199 9.43438061 4.3939166 14 7 C11 8 11 8 9.17578125 7.22265625 C7.45052083 6.1484375 5.72526042 5.07421875 4 4 C3.67 4.99 3.34 5.98 3 7 C0 3.375 0 3.375 0 0 Z " fill="#72665E" transform="translate(144,177)"/>
<path d="M0 0 C0.99 0.66 1.98 1.32 3 2 C3.66 2.33 4.32 2.66 5 3 C4.01 5.64 3.02 8.28 2 11 C-1 9 -1 9 -1.8125 6.625 C-2.02089707 3.70744102 -1.53656962 2.4404341 0 0 Z " fill="#C5B6A0" transform="translate(275,282)"/>
<path d="M0 0 C0 0.99 0 1.98 0 3 C1.32 3.33 2.64 3.66 4 4 C2.71349294 4.69710731 1.42059335 5.38242876 0.125 6.0625 C-0.95394531 6.63677734 -0.95394531 6.63677734 -2.0546875 7.22265625 C-2.69664062 7.47917969 -3.33859375 7.73570312 -4 8 C-4.66 7.67 -5.32 7.34 -6 7 C-6 6.34 -6 5.68 -6 5 C-4.68 4.67 -3.36 4.34 -2 4 C-2.99 3.01 -3.98 2.02 -5 1 C-3 0 -3 0 0 0 Z " fill="#A99986" transform="translate(338,225)"/>
<path d="M0 0 C0.66 0.33 1.32 0.66 2 1 C2.4140625 3.06640625 2.4140625 3.06640625 2.625 5.5625 C2.69976562 6.38878906 2.77453125 7.21507812 2.8515625 8.06640625 C2.90054687 8.70449219 2.94953125 9.34257812 3 10 C1 7 1 7 0 4 C-1.98 6.31 -3.96 8.62 -6 11 C-7 8 -7 8 -7 5 C-6.21625 4.731875 -5.4325 4.46375 -4.625 4.1875 C-1.71885077 3.15185568 -1.71885077 3.15185568 0 0 Z " fill="#736257" transform="translate(270,296)"/>
<path d="M0 0 C2.1875 -0.3125 2.1875 -0.3125 5 0 C7.8125 2.375 7.8125 2.375 10 5 C10 5.66 10 6.32 10 7 C7.29068581 6.84518205 5.53415961 6.51827919 3.5546875 4.59765625 C2.32320358 3.10228292 1.1570163 1.5537076 0 0 Z " fill="#B1A699" transform="translate(230,377)"/>
<path d="M0 0 C1.32 0.33 2.64 0.66 4 1 C3.79375 1.680625 3.5875 2.36125 3.375 3.0625 C2.89796783 6.79925203 3.92922372 9.40975011 5 13 C5.125 16.4375 5.125 16.4375 5 19 C2.59723991 15.39585987 2.09059164 11.99286955 1.375 7.8125 C1.2409375 7.06291016 1.106875 6.31332031 0.96875 5.54101562 C0.63954581 3.69512072 0.31893502 1.84769691 0 0 Z " fill="#585246" transform="translate(378,145)"/>
<path d="M0 0 C1.43410153 3.78819273 0.51009497 6.06521279 -0.9375 9.75 C-1.31777344 10.73484375 -1.69804688 11.7196875 -2.08984375 12.734375 C-2.39019531 13.48203125 -2.69054687 14.2296875 -3 15 C-3.66 15 -4.32 15 -5 15 C-4.43174347 9.45949887 -2.37113483 4.96284034 0 0 Z " fill="#AFA299" transform="translate(119,145)"/>
<path d="M0 0 C0.99 0.33 1.98 0.66 3 1 C2.6875 3.375 2.6875 3.375 2 6 C1.01 6.66 0.02 7.32 -1 8 C-1.99 7.67 -2.98 7.34 -4 7 C-2.125 3.125 -2.125 3.125 -1 2 C-0.67 1.34 -0.34 0.68 0 0 Z " fill="#C4B69E" transform="translate(224,284)"/>
<path d="M0 0 C0 0.66 0 1.32 0 2 C-1.65 2.33 -3.3 2.66 -5 3 C-5.33 4.65 -5.66 6.3 -6 8 C-6.66 8 -7.32 8 -8 8 C-8 7.01 -8 6.02 -8 5 C-9.32 4.67 -10.64 4.34 -12 4 C-10.3767313 3.3291288 -8.75132422 2.66342971 -7.125 2 C-6.22007812 1.62875 -5.31515625 1.2575 -4.3828125 0.875 C-2 0 -2 0 0 0 Z " fill="#948074" transform="translate(291,237)"/>
<path d="M0 0 C2.50357192 1.25178596 4.06433379 2.99981158 6 5 C3.69 5.33 1.38 5.66 -1 6 C-1 6.66 -1 7.32 -1 8 C-1.66 8 -2.32 8 -3 8 C-2.74438677 5.6568787 -2.40729228 3.32156597 -2 1 C-1.34 0.67 -0.68 0.34 0 0 Z " fill="#938574" transform="translate(328,234)"/>
<path d="M0 0 C0.33 0 0.66 0 1 0 C1.05389087 1.95803507 1.09274217 3.91648909 1.125 5.875 C1.14820312 6.96554688 1.17140625 8.05609375 1.1953125 9.1796875 C1 12 1 12 -1 14 C-1 13.34 -1 12.68 -1 12 C-1.99 12 -2.98 12 -4 12 C-4 10.35 -4 8.7 -4 7 C-3.01 7.495 -3.01 7.495 -2 8 C-1.7834375 7.13375 -1.7834375 7.13375 -1.5625 6.25 C-1.04166667 4.16666667 -0.52083333 2.08333333 0 0 Z " fill="#A59483" transform="translate(114,165)"/>
<path d="M0 0 C0.66 0.33 1.32 0.66 2 1 C1.745504 2.48206495 1.47088238 3.96068615 1.1875 5.4375 C1.03667969 6.26121094 0.88585937 7.08492187 0.73046875 7.93359375 C0.48941406 8.61550781 0.24835938 9.29742187 0 10 C-0.99 10.33 -1.98 10.66 -3 11 C-3.32613618 6.32538149 -2.70582788 3.83325617 0 0 Z " fill="#C0B49F" transform="translate(392,149)"/>
<path d="M0 0 C0.33 0 0.66 0 1 0 C1 1.65 1 3.3 1 5 C1.66 5.33 2.32 5.66 3 6 C2.67 6.66 2.34 7.32 2 8 C1.34 8 0.68 8 0 8 C0 10.64 0 13.28 0 16 C-2.52055505 12.21916742 -2.46702178 8.38281981 -2 4 C-1 1.5 -1 1.5 0 0 Z " fill="#988A7D" transform="translate(110,156)"/>
<path d="M0 0 C0 0.66 0 1.32 0 2 C0.66 2.33 1.32 2.66 2 3 C1.01 3.33 0.02 3.66 -1 4 C-1 3.34 -1 2.68 -1 2 C-2.98 2.33 -4.96 2.66 -7 3 C-7.66 2.01 -8.32 1.02 -9 0 C-5.93109813 -1.53445094 -3.29905734 -0.54984289 0 0 Z " fill="#C3B2A1" transform="translate(186,228)"/>
<path d="M0 0 C0.33 0 0.66 0 1 0 C1.33 4.95 1.66 9.9 2 15 C2.99 15.33 3.98 15.66 5 16 C3.35 16.33 1.7 16.66 0 17 C0 11.39 0 5.78 0 0 Z " fill="#756752" transform="translate(342,200)"/>
<path d="M0 0 C3.3556206 2.2370804 3.19278041 2.42517038 4 6 C4.66 6.33 5.32 6.66 6 7 C6.33 6.34 6.66 5.68 7 5 C6.67 7.31 6.34 9.62 6 12 C5.34 12 4.68 12 4 12 C3.3291288 10.3767313 2.66342971 8.75132422 2 7.125 C1.62875 6.22007812 1.2575 5.31515625 0.875 4.3828125 C0 2 0 2 0 0 Z " fill="#63564B" transform="translate(382,149)"/>
<path d="M0 0 C1.32 0.33 2.64 0.66 4 1 C4 1.66 4 2.32 4 3 C3.34 3 2.68 3 2 3 C2 3.66 2 4.32 2 5 C2.99 5.33 3.98 5.66 5 6 C4.01 6.495 4.01 6.495 3 7 C0.96855359 6.06553465 -1.03533587 5.06775224 -3 4 C-2.01 2.68 -1.02 1.36 0 0 Z " fill="#968675" transform="translate(162,226)"/>
<path d="M0 0 C1.62723299 0.45034123 3.25173664 0.91055354 4.875 1.375 C5.77992188 1.63023437 6.68484375 1.88546875 7.6171875 2.1484375 C10 3 10 3 12 5 C9.46653542 5.07037402 7.2762137 5.07102638 4.8125 4.4375 C2.91567768 3.77357897 2.91567768 3.77357897 1 5 C0.67 3.35 0.34 1.7 0 0 Z " fill="#857A66" transform="translate(130,206)"/>
<path d="M0 0 C0.99 1.485 0.99 1.485 2 3 C2.99 3.66 3.98 4.32 5 5 C4.34 5 3.68 5 3 5 C3.33 7.97 3.66 10.94 4 14 C0.99778216 9.49667324 -0.31896025 5.42232421 0 0 Z " fill="#7E7066" transform="translate(279,326)"/>
<path d="M0 0 C1.21065165 3.63195496 0.62784815 5.06531629 -0.4375 8.6875 C-0.86869141 10.17830078 -0.86869141 10.17830078 -1.30859375 11.69921875 C-1.53675781 12.45847656 -1.76492187 13.21773438 -2 14 C-3.15941038 10.52176885 -2.70820884 8.54104422 -2 5 C-2.66 4.67 -3.32 4.34 -4 4 C-2.68 2.68 -1.36 1.36 0 0 Z " fill="#7A6D5C" transform="translate(224,309)"/>
<path d="M0 0 C0.33 0.66 0.66 1.32 1 2 C0.22265625 3.7265625 0.22265625 3.7265625 -0.9375 5.625 C-1.618125 6.73875 -2.29875 7.8525 -3 9 C-2.01 9.33 -1.02 9.66 0 10 C-1.65 10.66 -3.3 11.32 -5 12 C-3.85814266 7.52040582 -2.56984833 3.85477249 0 0 Z " fill="#655E54" transform="translate(258,304)"/>
<path d="M0 0 C0.66 0 1.32 0 2 0 C0.64615385 6.52307692 0.64615385 6.52307692 -2.625 8.9375 C-3.40875 9.288125 -4.1925 9.63875 -5 10 C-3.66749209 6.4124787 -2.169283 3.1635377 0 0 Z " fill="#766F62" transform="translate(274,279)"/>
<path d="M0 0 C1.98 0 3.96 0 6 0 C6 0.66 6 1.32 6 2 C6.99 2 7.98 2 9 2 C9.33 2.99 9.66 3.98 10 5 C8.51800098 4.55090939 7.03944764 4.09043436 5.5625 3.625 C4.73878906 3.36976563 3.91507812 3.11453125 3.06640625 2.8515625 C1 2 1 2 0 0 Z " fill="#79695E" transform="translate(122,212)"/>
<path d="M0 0 C3.45195767 1.4258086 5.1014256 3.09746334 7.25 6.125 C8.03117188 7.21167969 8.03117188 7.21167969 8.828125 8.3203125 C9.40820312 9.15175781 9.40820312 9.15175781 10 10 C9.01 10.495 9.01 10.495 8 11 C6.66375099 9.35653302 5.33107149 7.71016314 4 6.0625 C3.2575 5.14597656 2.515 4.22945313 1.75 3.28515625 C0 1 0 1 0 0 Z " fill="#5C4D45" transform="translate(233,303)"/>
<path d="M0 0 C0.33 0 0.66 0 1 0 C1 2.64 1 5.28 1 8 C0.34 8 -0.32 8 -1 8 C-1.33 9.98 -1.66 11.96 -2 14 C-3.25127906 10.45332822 -2.72285053 8.27746562 -1.5625 4.75 C-1.27503906 3.85796875 -0.98757812 2.9659375 -0.69140625 2.046875 C-0.46324219 1.37140625 -0.23507813 0.6959375 0 0 Z " fill="#7F7266" transform="translate(218,291)"/>
<path d="M0 0 C-2.31 1.65 -4.62 3.3 -7 5 C-7.33 3.68 -7.66 2.36 -8 1 C-4.59449725 -1.06762667 -4.18836538 -1.04709135 0 0 Z " fill="#C3B3A0" transform="translate(281,244)"/>
<path d="M0 0 C0.33 0 0.66 0 1 0 C1.33 2.31 1.66 4.62 2 7 C0.68 7.99 -0.64 8.98 -2 10 C-1.125 2.25 -1.125 2.25 0 0 Z " fill="#857A6C" transform="translate(214,305)"/>
<path d="M0 0 C1.32 0.33 2.64 0.66 4 1 C4 2.65 4 4.3 4 6 C3.01 6 2.02 6 1 6 C0.67 4.02 0.34 2.04 0 0 Z " fill="#AB9988" transform="translate(279,295)"/>
<path d="M0 0 C0 0.99 0 1.98 0 3 C-0.9075 3.144375 -1.815 3.28875 -2.75 3.4375 C-5.21476956 3.86409473 -7.58847107 4.35074221 -10 5 C-5.16129032 0 -5.16129032 0 0 0 Z " fill="#4F3D36" transform="translate(356,177)"/>
<path d="M0 0 C0.66 0.33 1.32 0.66 2 1 C1.01 2.98 0.02 4.96 -1 7 C-2.65 7 -4.3 7 -6 7 C-4.02 4.69 -2.04 2.38 0 0 Z " fill="#645949" transform="translate(269,370)"/>
<path d="M0 0 C2.0625 0.4375 2.0625 0.4375 4 1 C4.33 2.65 4.66 4.3 5 6 C3.68 5.01 2.36 4.02 1 3 C0.34 3.99 -0.32 4.98 -1 6 C-1.042721 4.33388095 -1.04063832 2.66617115 -1 1 C-0.67 0.67 -0.34 0.34 0 0 Z " fill="#7A5D4D" transform="translate(228,297)"/>
<path d="M0 0 C2.64 0 5.28 0 8 0 C8 0.99 8 1.98 8 3 C7.01 3.495 7.01 3.495 6 4 C3.96855359 3.06553465 1.96466413 2.06775224 0 1 C0 0.67 0 0.34 0 0 Z " fill="#937D71" transform="translate(150,225)"/>
<path d="M0 0 C0.66 0.66 1.32 1.32 2 2 C1.8125 4.0625 1.8125 4.0625 1 6 C0.01 6.33 -0.98 6.66 -2 7 C-1.125 1.125 -1.125 1.125 0 0 Z " fill="#C4B4A2" transform="translate(214,312)"/>
<path d="M0 0 C0.33 0 0.66 0 1 0 C1 3.3 1 6.6 1 10 C0.01 9.01 -0.98 8.02 -2 7 C-1.56521739 1.56521739 -1.56521739 1.56521739 0 0 Z " fill="#C0B09C" transform="translate(112,165)"/>
<path d="M0 0 C0.33 0 0.66 0 1 0 C0.67 2.97 0.34 5.94 0 9 C-0.66 8.34 -1.32 7.68 -2 7 C-1.43181818 1.43181818 -1.43181818 1.43181818 0 0 Z " fill="#B1A69C" transform="translate(397,132)"/>
<path d="M0 0 C0.99 0.495 0.99 0.495 2 1 C2.59355614 3.64860427 2.74209269 6.29197322 3 9 C2.34 9 1.68 9 1 9 C0.67 6.03 0.34 3.06 0 0 Z " fill="#B6AA9C" transform="translate(100,129)"/>
<path d="M0 0 C0.6875 1.8125 0.6875 1.8125 1 4 C-0.3125 5.75 -0.3125 5.75 -2 7 C-2.66 7 -3.32 7 -4 7 C-4 6.01 -4 5.02 -4 4 C-3.34 4 -2.68 4 -2 4 C-1.34 2.68 -0.68 1.36 0 0 Z " fill="#524C47" transform="translate(258,381)"/>
<path d="M0 0 C-0.99 1.485 -0.99 1.485 -2 3 C-4.64 2.34 -7.28 1.68 -10 1 C-10 0.67 -10 0.34 -10 0 C-6.33694766 -0.74926071 -3.57644848 -1.2380014 0 0 Z " fill="#654F46" transform="translate(356,236)"/>
<path d="M0 0 C3.465 1.485 3.465 1.485 7 3 C6.01 3.33 5.02 3.66 4 4 C2.33066942 4.6599679 0.6635479 5.32558869 -1 6 C-0.67 4.02 -0.34 2.04 0 0 Z " fill="#968273" transform="translate(167,220)"/>
</svg>
